<svg width="76" height="76" viewBox="0 0 76 76" fill="none" xmlns="http://www.w3.org/2000/svg">
<path d="M28.287 73.3656C30.3119 71.1827 30.9986 70.6024 37.5718 63.2539C43.4358 56.7043 43.5045 50.652 38.1576 45.6372C38.1576 45.6372 38.1501 45.6301 38.1497 45.6156C38.1497 45.6156 23.4692 31.8224 21.5247 29.9935C22.8196 26.7435 24.7374 23.6705 27.2766 20.9706C38.1653 9.3934 56.3859 8.82768 67.9706 19.7234C70.5209 22.122 72.5374 24.8783 74.0157 27.8472C73.4952 28.4006 29.8351 74.8217 29.828 74.8292C29.4271 75.2555 28.7595 75.2759 28.3332 74.875C27.9069 74.4741 27.8865 73.8065 28.2874 73.3802L28.287 73.3656Z" fill="#F78C1E"/>
<path d="M47.7283 37.2918C47.7283 36.1613 47.708 35.0396 47.6675 33.9265C47.6269 32.8077 47.537 31.7352 47.3979 30.7092C47.2588 29.6831 47.0588 28.7236 46.7979 27.8309C46.5428 26.9381 46.1979 26.1497 45.7631 25.4657L47.2066 24.5439C47.682 25.2976 48.0762 26.1758 48.3892 27.1787C48.708 28.1816 48.9515 29.3149 49.1196 30.5787C49.1892 31.1236 49.2443 31.686 49.2849 32.2657C49.3312 32.8454 49.366 33.4251 49.3892 34.0048C49.4182 34.5787 49.4356 35.1439 49.4414 35.7005C49.453 36.257 49.4588 36.7874 49.4588 37.2918H47.7283Z" fill="white"/>
</svg>
