<svg width="76" height="76" viewBox="0 0 76 76" fill="none" xmlns="http://www.w3.org/2000/svg">
<path d="M28.287 73.3656C30.3119 71.1827 30.9986 70.6024 37.5718 63.2539C43.4358 56.7043 43.5045 50.652 38.1576 45.6372C38.1576 45.6372 38.1501 45.6301 38.1497 45.6156C38.1497 45.6156 23.4692 31.8224 21.5247 29.9935C22.8196 26.7435 24.7374 23.6705 27.2766 20.9706C38.1653 9.3934 56.3859 8.82768 67.9706 19.7234C70.5209 22.122 72.5374 24.8783 74.0157 27.8472C73.4952 28.4006 29.8351 74.8217 29.828 74.8292C29.4271 75.2555 28.7595 75.2759 28.3332 74.875C27.9069 74.4741 27.8865 73.8065 28.2874 73.3802L28.287 73.3656Z" fill="#F78C1E"/>
<path d="M52.8234 24.3526C52.8234 24.3642 52.8321 24.4222 52.8495 24.5265C52.8669 24.6309 52.8843 24.7642 52.9017 24.9265C52.9191 25.0889 52.9335 25.2773 52.9451 25.4918C52.9567 25.7005 52.9596 25.9207 52.9538 26.1526C52.9249 27.4976 52.6089 28.5236 52.006 29.2309V29.2222C51.7162 29.5758 51.3654 29.8425 50.9538 30.0222C50.548 30.2019 50.0959 30.2918 49.5973 30.2918C49.3249 30.2918 49.0756 30.2744 48.8495 30.2396C48.6234 30.199 48.4002 30.1352 48.1799 30.0483C48.1915 30.1294 48.2031 30.2106 48.2147 30.2918C48.2263 30.3671 48.2379 30.4454 48.2495 30.5265C48.3191 31.0715 48.3741 31.6338 48.4147 32.2135C48.4611 32.7874 48.4959 33.3642 48.5191 33.9439C48.548 34.5178 48.5654 35.086 48.5712 35.6483C48.5828 36.2048 48.5886 36.7352 48.5886 37.2396H46.8582C46.8582 36.3178 46.8495 35.4019 46.8321 34.4918C46.8147 33.5758 46.7683 32.6889 46.693 31.8309C46.6176 30.9671 46.5046 30.1439 46.3538 29.3613C46.2089 28.5729 46.006 27.8483 45.7451 27.1874C45.6234 26.8802 45.493 26.5845 45.3538 26.3005C45.2147 26.0106 45.0582 25.7149 44.8843 25.4135L46.3364 24.4918C46.4292 24.6425 46.5162 24.7961 46.5973 24.9526C46.6785 25.1034 46.7567 25.2628 46.8321 25.4309C46.9075 25.5932 46.9857 25.7671 47.0669 25.9526C47.148 26.1381 47.2379 26.3381 47.3364 26.5526C47.4698 26.8599 47.6002 27.1381 47.7278 27.3874C47.8611 27.6309 48.0118 27.8425 48.1799 28.0222C48.3538 28.2019 48.5509 28.341 48.7712 28.4396C48.9973 28.5323 49.2727 28.5787 49.5973 28.5787C49.8408 28.5787 50.0495 28.5439 50.2234 28.4744C50.4031 28.399 50.5567 28.286 50.6843 28.1352C50.7944 28.0077 50.8843 27.8599 50.9538 27.6918C51.0234 27.5178 51.0785 27.3352 51.1191 27.1439C51.1654 26.9526 51.1973 26.7555 51.2147 26.5526C51.2321 26.3497 51.2408 26.1526 51.2408 25.9613C51.2408 25.7121 51.2263 25.4715 51.1973 25.2396C51.1741 25.0077 51.148 24.8164 51.1191 24.6657L52.8234 24.3526Z" fill="white"/>
</svg>
