<svg width="76" height="76" viewBox="0 0 76 76" fill="none" xmlns="http://www.w3.org/2000/svg">
<path d="M28.287 73.3656C30.3119 71.1827 30.9986 70.6024 37.5718 63.2539C43.4358 56.7043 43.5045 50.652 38.1576 45.6372C38.1576 45.6372 38.1501 45.6301 38.1497 45.6156C38.1497 45.6156 23.4692 31.8224 21.5247 29.9935C22.8196 26.7435 24.7374 23.6705 27.2766 20.9706C38.1653 9.3934 56.3859 8.82768 67.9706 19.7234C70.5209 22.122 72.5374 24.8783 74.0157 27.8472C73.4952 28.4006 29.8351 74.8217 29.828 74.8292C29.4271 75.2555 28.7595 75.2759 28.3332 74.875C27.9069 74.4741 27.8865 73.8065 28.2874 73.3802L28.287 73.3656Z" fill="#F78C1E"/>
<path d="M52.6959 24.257C52.7886 24.7555 52.8582 25.2164 52.9046 25.6396C52.9567 26.0628 52.9828 26.4512 52.9828 26.8048C52.9828 27.9121 52.748 28.7526 52.2785 29.3265C52.0582 29.5874 51.7944 29.7874 51.4872 29.9265C51.1857 30.0657 50.8495 30.1352 50.4785 30.1352C50.3335 30.1352 50.1799 30.1207 50.0176 30.0918C49.8553 30.057 49.6901 30.0019 49.5219 29.9265C49.3538 29.8454 49.1886 29.7352 49.0263 29.5961C48.864 29.457 48.7103 29.2831 48.5654 29.0744L48.3915 29.3352C48.1132 29.6483 47.8118 29.886 47.4872 30.0483C47.1625 30.2106 46.777 30.2918 46.3306 30.2918C46.1103 30.2918 45.919 30.2802 45.7567 30.257C45.5944 30.228 45.4234 30.1816 45.2437 30.1178C45.2553 30.1932 45.264 30.2628 45.2698 30.3265C45.2814 30.3903 45.293 30.457 45.3046 30.5265C45.3799 31.0831 45.4379 31.6483 45.4785 32.2222C45.5248 32.7961 45.5596 33.3671 45.5828 33.9352C45.606 34.5034 45.6205 35.0657 45.6263 35.6222C45.6379 36.1787 45.6437 36.7149 45.6437 37.2309H43.9132C43.9248 36.9932 43.9306 36.7468 43.9306 36.4918C43.9364 36.2309 43.9393 35.9845 43.9393 35.7526C43.9393 34.9178 43.9103 34.0976 43.8524 33.2918C43.7944 32.486 43.7075 31.7092 43.5915 30.9613C43.4814 30.2135 43.3393 29.4976 43.1654 28.8135C42.9915 28.1294 42.7886 27.4889 42.5567 26.8918C42.5451 26.8686 42.5277 26.828 42.5046 26.77C42.493 26.7468 42.4843 26.7236 42.4785 26.7005C42.3857 26.4802 42.2843 26.2628 42.1741 26.0483C42.0698 25.828 41.9509 25.6135 41.8176 25.4048L43.3915 24.4744C43.4321 24.5439 43.4785 24.628 43.5306 24.7265C43.5886 24.8251 43.6466 24.9323 43.7046 25.0483C43.7625 25.1642 43.8205 25.286 43.8785 25.4135C43.9364 25.5352 43.9944 25.6541 44.0524 25.77C44.1857 26.0483 44.3219 26.341 44.4611 26.6483C44.6176 27.0077 44.7538 27.3092 44.8698 27.5526C44.9915 27.7961 45.1161 27.9932 45.2437 28.1439C45.3712 28.2947 45.519 28.4048 45.6872 28.4744C45.8553 28.5381 46.0698 28.57 46.3306 28.57C46.5219 28.57 46.6669 28.541 46.7654 28.4831C46.8698 28.4251 46.9712 28.3352 47.0698 28.2135C47.2321 28.028 47.3596 27.7613 47.4524 27.4135C47.5509 27.0657 47.606 26.657 47.6176 26.1874C47.6176 26.1236 47.6147 26.0135 47.6089 25.857C47.6031 25.6947 47.5944 25.5265 47.5828 25.3526C47.5712 25.1787 47.5596 25.0193 47.548 24.8744C47.5422 24.7236 47.5364 24.6309 47.5306 24.5961L49.2524 24.3874C49.2524 24.4048 49.2524 24.4309 49.2524 24.4657C49.2524 24.5005 49.2553 24.5294 49.2611 24.5526C49.2727 24.6164 49.2843 24.7207 49.2959 24.8657C49.3132 25.0048 49.3277 25.17 49.3393 25.3613C49.3741 25.7149 49.4205 26.0889 49.4785 26.4831C49.5422 26.8773 49.6205 27.2251 49.7132 27.5265C49.7886 27.7294 49.864 27.8918 49.9393 28.0135C50.0147 28.1294 50.0872 28.2164 50.1567 28.2744C50.2263 28.3323 50.2872 28.37 50.3393 28.3874C50.3973 28.399 50.4437 28.4048 50.4785 28.4048C50.6292 28.4048 50.7364 28.3874 50.8002 28.3526C50.8698 28.3121 50.919 28.2715 50.948 28.2309C50.977 28.1961 51.0089 28.1468 51.0437 28.0831C51.0843 28.0135 51.119 27.9236 51.148 27.8135C51.1828 27.6976 51.2118 27.5584 51.235 27.3961C51.2582 27.228 51.2698 27.028 51.2698 26.7961C51.2698 26.541 51.2495 26.2338 51.2089 25.8744C51.1683 25.5092 51.1017 25.0773 51.0089 24.5787L52.6959 24.257Z" fill="white"/>
</svg>
