<svg width="76" height="76" viewBox="0 0 76 76" fill="none" xmlns="http://www.w3.org/2000/svg">
<path d="M28.287 73.3656C30.3119 71.1827 30.9986 70.6024 37.5718 63.2539C43.4358 56.7043 43.5045 50.652 38.1576 45.6372C38.1576 45.6372 38.1501 45.6301 38.1497 45.6156C38.1497 45.6156 23.4692 31.8224 21.5247 29.9935C22.8196 26.7435 24.7374 23.6705 27.2766 20.9706C38.1653 9.3934 56.3859 8.82768 67.9706 19.7234C70.5209 22.122 72.5374 24.8783 74.0157 27.8472C73.4952 28.4006 29.8351 74.8217 29.828 74.8292C29.4271 75.2555 28.7595 75.2759 28.3332 74.875C27.9069 74.4741 27.8865 73.8065 28.2874 73.3802L28.287 73.3656Z" fill="#F78C1E"/>
<path d="M49.9842 30.8396C49.6422 30.8396 49.3031 30.8106 48.9668 30.7526C48.6306 30.6889 48.3263 30.6019 48.0538 30.4918C47.8683 30.4106 47.6857 30.3149 47.506 30.2048C47.3321 30.0947 47.1726 29.9729 47.0277 29.8396L47.1147 30.4396C47.19 30.9961 47.248 31.5613 47.2886 32.1352C47.335 32.7092 47.3697 33.2831 47.3929 33.857C47.4161 34.4251 47.4306 34.9874 47.4364 35.5439C47.448 36.1005 47.4538 36.6367 47.4538 37.1526H45.7234C45.7234 36.0222 45.7031 34.9005 45.6625 33.7874C45.6219 32.6686 45.5321 31.5961 45.3929 30.57C45.2538 29.5439 45.0538 28.5845 44.7929 27.6918C44.5379 26.799 44.1929 26.0106 43.7582 25.3265L45.2016 24.4135C45.4045 24.7439 45.5958 25.0918 45.7755 25.457C45.9553 25.8222 46.1118 26.1903 46.2451 26.5613C46.3089 26.37 46.3929 26.1787 46.4973 25.9874C46.6074 25.7961 46.735 25.6193 46.8799 25.457L46.8712 25.4657C47.1958 25.0773 47.5929 24.7671 48.0625 24.5352C48.5321 24.2976 49.0248 24.1671 49.5408 24.1439C49.9408 24.1265 50.3524 24.1816 50.7755 24.3092C51.2045 24.4367 51.6277 24.6367 52.0451 24.9092C52.306 25.0773 52.5147 25.2338 52.6712 25.3787C52.8335 25.5178 52.9466 25.6164 53.0103 25.6744L53.1147 25.7787L51.8712 26.9787C51.8712 26.9787 51.8393 26.9497 51.7755 26.8918C51.7176 26.8338 51.6364 26.7613 51.5321 26.6744C51.4335 26.5874 51.3118 26.4947 51.1668 26.3961C51.0277 26.2976 50.8741 26.2077 50.706 26.1265C50.5379 26.0454 50.3611 25.9816 50.1755 25.9352C49.9958 25.8831 49.8103 25.8599 49.619 25.8657H49.6277C49.3495 25.8831 49.0828 25.9555 48.8277 26.0831C48.5784 26.2048 48.3668 26.3671 48.1929 26.57C48.0944 26.6918 48.0016 26.8541 47.9147 27.057C47.8277 27.2599 47.8016 27.5034 47.8364 27.7874C47.8828 28.0425 47.9784 28.2686 48.1234 28.4657C48.2683 28.6628 48.4654 28.8106 48.7147 28.9092C48.8828 28.9671 49.0799 29.0164 49.306 29.057C49.5321 29.0976 49.7582 29.1178 49.9842 29.1178C50.1118 29.1178 50.2393 29.1149 50.3668 29.1092C50.5002 29.0976 50.6364 29.0802 50.7755 29.057C51.1639 29.0048 51.5089 28.9178 51.8103 28.7961C52.1118 28.6686 52.3321 28.5526 52.4712 28.4483L53.2364 29.857C52.9466 30.0773 52.6277 30.2657 52.2799 30.4222C51.9321 30.5787 51.5147 30.6947 51.0277 30.77C50.848 30.799 50.6712 30.8193 50.4973 30.8309C50.3234 30.8367 50.1524 30.8396 49.9842 30.8396Z" fill="white"/>
</svg>
