<svg width="120" height="32" viewBox="0 0 120 32" fill="none" xmlns="http://www.w3.org/2000/svg">
<path d="M84.0904 27.8093C84.0295 27.7597 83.9548 27.73 83.8763 27.7244C83.7979 27.7187 83.7196 27.7374 83.6523 27.7779C83.3005 27.94 82.9138 28.0127 82.5269 27.9895C82.14 27.9664 81.7648 27.8481 81.4351 27.6452C81.2752 27.5563 81.1427 27.4257 81.0518 27.2674C80.9609 27.1092 80.9149 26.9292 80.919 26.7469C80.9072 25.7169 80.9012 24.683 80.919 23.6589C80.9146 23.4409 80.9737 23.2262 81.0891 23.0408C81.2045 22.8555 81.3712 22.7073 81.5693 22.6142C81.9619 22.4214 82.3932 22.3194 82.8309 22.3158C83.2686 22.3123 83.7015 22.4072 84.0973 22.5936C84.24 22.6763 84.3745 22.7724 84.4989 22.8806L84.1042 23.0221C83.8814 22.8323 83.6109 22.7067 83.3217 22.6587C83.0326 22.6108 82.7357 22.6423 82.4632 22.7498C82.272 22.8067 82.1057 22.9261 81.9909 23.0887C81.8762 23.2513 81.8197 23.4477 81.8307 23.6462C81.809 24.6847 81.809 25.7235 81.8307 26.7626C81.8285 26.9617 81.8978 27.155 82.026 27.3077C82.1543 27.4603 82.3332 27.5623 82.5303 27.5951C82.7932 27.6555 83.0643 27.6718 83.3326 27.6432C83.5136 27.6343 83.6838 27.5542 83.8055 27.4204C83.9273 27.2866 83.9907 27.1101 83.9818 26.9297C83.9818 26.913 83.9818 26.8963 83.9818 26.8806V25.2639H83.1066C83.0948 25.1096 82.9832 24.9454 83.2329 24.9366C83.6819 24.9258 84.1308 24.9366 84.6005 24.9366V28C84.424 27.9553 84.2529 27.8914 84.0904 27.8093ZM75.5511 27.9076C75.9787 26.6837 76.4063 25.4604 76.8339 24.2378C77.0312 23.6707 77.2286 23.1086 77.4259 22.5415C77.4733 22.4039 77.5355 22.2899 77.6943 22.3449C77.8039 22.3774 77.94 22.4432 77.9706 22.5287C78.5933 24.2978 79.2011 26.0727 79.8119 27.8476C79.8169 27.8838 79.8169 27.9206 79.8119 27.9567C79.5159 27.9567 79.2277 27.9666 78.9366 27.9489C78.8934 27.94 78.8527 27.9217 78.8176 27.8951C78.7824 27.8686 78.7536 27.8346 78.7334 27.7956C78.6238 27.5282 78.5518 27.2452 78.4314 26.9828C78.4037 26.9324 78.3647 26.889 78.3175 26.856C78.2702 26.8229 78.2161 26.8011 78.1591 26.7921C77.8305 26.7823 77.5029 26.7823 77.1723 26.7823H76.4066C76.3725 26.7774 76.3377 26.7794 76.3043 26.788C76.2709 26.7966 76.2395 26.8117 76.212 26.8324C76.1845 26.8532 76.1613 26.8791 76.1439 26.9088C76.1265 26.9385 76.1152 26.9713 76.1106 27.0054C76.0287 27.2727 75.9409 27.5381 75.8333 27.7916C75.7998 27.8722 75.6932 27.9223 75.6212 27.9882L75.5511 27.9076ZM77.2513 23.7366C76.9414 24.6349 76.6316 25.5341 76.3149 26.4609H78.2657C77.9371 25.5253 77.6282 24.624 77.3164 23.7238L77.2513 23.7366ZM18.2048 27.8987L20.0796 22.5317C20.0931 22.4697 20.1286 22.4147 20.1795 22.3766C20.2304 22.3386 20.2933 22.32 20.3568 22.3243C20.5631 22.3145 20.6085 22.4334 20.6588 22.5808C21.1193 23.9318 21.5824 25.2815 22.0481 26.63L22.5 27.9479C22.1586 27.9479 21.8537 27.9577 21.5508 27.94C21.4906 27.94 21.4107 27.8418 21.3831 27.7739C21.2735 27.5047 21.2005 27.2285 21.087 26.9602C21.0612 26.9135 21.025 26.8733 20.9812 26.8427C20.9375 26.812 20.8872 26.7917 20.8344 26.7833C20.2424 26.7666 19.6503 26.7656 19.0583 26.7833C19.0019 26.7948 18.9489 26.8189 18.9033 26.8538C18.8576 26.8887 18.8206 26.9335 18.7948 26.9847C18.6804 27.2383 18.6143 27.5135 18.5047 27.771C18.4672 27.8565 18.3577 27.9125 18.2807 27.9813L18.2048 27.8987ZM19.9029 23.7326C19.5921 24.6329 19.2823 25.5331 18.9636 26.457H20.9173C20.5887 25.5214 20.2818 24.6241 19.971 23.7326H19.9029ZM28.607 27.9174L29.2839 25.9803C29.6786 24.8403 30.0861 23.7002 30.4808 22.5611C30.5301 22.4167 30.5795 22.3282 30.767 22.3302C30.9544 22.3321 31.0067 22.4167 31.0561 22.5641C31.6527 24.3076 32.251 26.054 32.8509 27.8034C32.8638 27.8398 32.8746 27.8761 32.8924 27.9331C32.8726 27.9395 32.8525 27.9447 32.8322 27.9489C32.7335 27.9489 32.6299 27.9577 32.5273 27.9666C32.3147 28.0115 32.0934 27.9909 31.8928 27.9076C31.6826 27.7749 31.6284 27.3749 31.5415 27.083C31.5299 26.99 31.482 26.9053 31.4081 26.8471C31.3343 26.789 31.2404 26.7622 31.1468 26.7725H31.1251C30.5943 26.7941 30.0604 26.7911 29.5306 26.7725C29.4899 26.7656 29.4483 26.7667 29.4082 26.7758C29.368 26.7849 29.33 26.8018 29.2964 26.8255C29.2627 26.8492 29.2341 26.8793 29.2122 26.9141C29.1902 26.9488 29.1754 26.9875 29.1684 27.028V27.0349C29.0988 27.2844 29.0141 27.5296 28.9148 27.769C28.8773 27.8545 28.7718 27.9125 28.6958 27.9872L28.607 27.9174ZM29.3727 26.4609H31.3235L30.3456 23.6383L29.3727 26.4609ZM56.9659 27.885C56.6402 27.8531 56.3403 27.6943 56.1317 27.4432C55.923 27.1921 55.8224 26.8691 55.8519 26.5444C55.844 26.0943 55.8519 25.6462 55.8519 25.197V23.939C55.8239 23.7462 55.8373 23.5497 55.8913 23.3625C55.9452 23.1753 56.0385 23.0016 56.1649 22.8529C56.2913 22.7043 56.4479 22.5841 56.6244 22.5002C56.801 22.4164 56.9934 22.3708 57.1889 22.3665C57.7051 22.3053 58.2277 22.3215 58.739 22.4147C59.0351 22.4435 59.3092 22.5835 59.5054 22.8061C59.7017 23.0288 59.8055 23.3176 59.7958 23.6137C59.8343 24.5965 59.8412 25.5901 59.7958 26.5769C59.8051 26.9273 59.6743 27.2671 59.432 27.5215C59.1898 27.7758 58.8561 27.9239 58.5042 27.9331H58.4638C58.278 27.9536 58.0912 27.9638 57.9043 27.9636C57.5892 27.9633 57.2747 27.9373 56.9639 27.886L56.9659 27.885ZM56.7547 23.7631C56.7468 24.2329 56.7547 24.7017 56.7547 25.1715C56.7547 25.6815 56.7439 26.1906 56.7547 26.6968C56.7494 26.8193 56.7684 26.9417 56.8106 27.057C56.8529 27.1722 56.9175 27.2781 57.0008 27.3684C57.0841 27.4588 57.1844 27.5319 57.2961 27.5836C57.4078 27.6353 57.5286 27.6646 57.6517 27.6697H57.7207C57.9712 27.7192 58.2311 27.6676 58.4433 27.5262C58.6555 27.3848 58.8027 27.1654 58.8525 26.916C58.8585 26.8865 58.8624 26.858 58.8654 26.8285C58.8892 26.6803 58.9014 26.5304 58.9019 26.3803C58.9058 25.8319 58.9058 25.2832 58.9019 24.7341C58.9019 24.3046 58.9098 23.8752 58.8732 23.4486C58.8664 23.2666 58.7993 23.0919 58.6824 22.9519C58.5655 22.8118 58.4054 22.7141 58.2269 22.6742C58.0827 22.6318 57.9333 22.6096 57.7829 22.6083C57.5093 22.6068 57.2463 22.7134 57.0517 22.9049C56.857 23.0964 56.7467 23.357 56.7449 23.6294C56.7446 23.6741 56.7472 23.7188 56.7527 23.7631H56.7547ZM64.2184 27.944C64.1286 27.9351 64.0211 27.824 63.9688 27.7336C63.5247 26.9985 63.0935 26.2594 62.6554 25.5174C62.6061 25.4339 62.5459 25.3553 62.4896 25.2639C62.3481 25.3507 62.2328 25.474 62.1557 25.6206C62.0786 25.7673 62.0426 25.932 62.0515 26.0973C62.093 26.7037 62.0614 27.312 62.0614 27.9371H61.1862V22.3528H62.0614V25.1331C62.3574 24.7882 62.5933 24.511 62.8271 24.2339C63.2929 23.6894 63.7665 23.1439 64.2184 22.5808C64.282 22.4772 64.3807 22.3995 64.4966 22.3619C64.6126 22.3242 64.7382 22.329 64.8509 22.3754L63.0324 24.5661C63.7231 25.6815 64.4138 26.797 65.1371 27.9558H64.6131C64.4814 27.96 64.3496 27.956 64.2184 27.944ZM39.3664 27.944V22.3606H40.2268V27.944H39.3664ZM45.2651 27.9322V22.3302C45.5158 22.338 45.7664 22.3302 46.016 22.3302C46.6563 22.2874 47.2993 22.3455 47.9214 22.5022C48.1263 22.538 48.3146 22.6374 48.4594 22.7862C48.6042 22.935 48.6981 23.1256 48.7276 23.3307C48.7656 23.5645 48.7332 23.8043 48.6345 24.0198C48.5358 24.2352 48.3752 24.4168 48.173 24.5415C48.0852 24.5995 47.9915 24.6506 47.877 24.7233C48.0744 24.7911 48.248 24.8324 48.4079 24.9022C48.6945 25.0182 48.938 25.2199 49.1046 25.4796C49.2713 25.7392 49.353 26.044 49.3384 26.3518C49.351 26.6451 49.2678 26.9346 49.1013 27.1768C48.9348 27.4191 48.6939 27.601 48.4148 27.6953C48.1103 27.8222 47.7869 27.8986 47.4577 27.9214C47.1616 27.9341 46.8656 27.9391 46.5637 27.9391C46.1344 27.9391 45.7052 27.9322 45.2671 27.9322H45.2651ZM46.1769 24.9385V27.6344C46.5212 27.6344 46.8498 27.6511 47.1754 27.6344C47.4061 27.6189 47.6289 27.545 47.8229 27.4197C48.0168 27.2943 48.1753 27.1217 48.2835 26.9182C48.3916 26.7147 48.4458 26.4871 48.4408 26.2569C48.4358 26.0267 48.3718 25.8016 48.2549 25.6029C48.1018 25.3576 47.8852 25.1579 47.628 25.0246C47.3707 24.8912 47.0822 24.8293 46.7926 24.8452C46.5828 24.8453 46.3743 24.8784 46.1749 24.9435L46.1769 24.9385ZM46.1769 24.5965C46.556 24.5923 46.9345 24.5624 47.3097 24.5071C47.7379 24.4167 47.9441 24.054 47.9402 23.543C47.9601 23.3508 47.9029 23.1587 47.7811 23.0084C47.6592 22.8582 47.4827 22.762 47.2899 22.741C46.9211 22.6874 46.5494 22.6546 46.1769 22.6427V24.5965ZM66.405 27.9381V22.3577H69.4363L69.457 22.6525H67.3119V24.913H68.8531V25.2403H67.3079V27.6482H69.4353V27.943L66.405 27.9381ZM73.5865 27.9381V26.3656C73.6175 26.1075 73.5445 25.8477 73.3836 25.6431C73.2228 25.4385 72.987 25.3056 72.7281 25.2737C72.678 25.2676 72.6275 25.2653 72.5771 25.2668C72.2179 25.2373 71.8558 25.2668 71.4611 25.2668V27.941H70.5592V22.3449C70.8286 22.3528 71.097 22.3449 71.3654 22.3449C72.0634 22.2996 72.7644 22.3596 73.4444 22.5228C73.7462 22.5722 74.0186 22.732 74.2083 22.9708C74.3981 23.2096 74.4917 23.5104 74.4707 23.8142C74.4665 24.0305 74.4007 24.2412 74.2811 24.4218C74.1614 24.6024 73.9928 24.7455 73.7947 24.8344C73.6132 24.9327 73.4178 25.0024 73.182 25.1046C73.3241 25.1479 73.4237 25.1764 73.5224 25.2137C73.812 25.2892 74.0666 25.4618 74.2435 25.7024C74.4203 25.9429 74.5085 26.2368 74.4933 26.5346V27.8535C74.4876 27.8873 74.478 27.9203 74.4647 27.9518L73.5865 27.9381ZM71.4601 24.9602C71.891 24.9544 72.3213 24.9242 72.7488 24.8697C73.0109 24.8338 73.2495 24.7 73.4164 24.4955C73.5833 24.2909 73.6659 24.0309 73.6477 23.768C73.6566 23.5097 73.5669 23.2577 73.3966 23.0627C73.2263 22.8678 72.9881 22.7444 72.73 22.7174C72.3084 22.6705 71.8843 22.6485 71.4601 22.6516V24.9602ZM85.9356 27.9371V22.3528H88.9757L88.9945 22.6565H86.8414V24.9071H88.3728V25.2442H86.8414V27.6413H88.9639L88.9935 27.9361L85.9356 27.9371ZM50.6211 27.9371V22.3547C51.2625 22.3547 51.9039 22.3223 52.5394 22.3656C52.9671 22.3993 53.3884 22.4892 53.7925 22.6329C54.0138 22.7073 54.2054 22.8502 54.3393 23.0409C54.4731 23.2315 54.5423 23.4598 54.5365 23.6924C54.5534 23.9293 54.496 24.1657 54.3723 24.3689C54.2486 24.572 54.0646 24.7319 53.8458 24.8265C53.6652 24.9248 53.4709 24.9946 53.2538 25.0889C53.4511 25.1567 53.609 25.198 53.7609 25.2688C53.9744 25.3485 54.1602 25.4879 54.296 25.6703C54.4318 25.8527 54.5119 26.0702 54.5267 26.2968C54.5602 26.8324 54.5355 27.3779 54.5355 27.9312H53.6337V26.3734C53.6523 26.248 53.6458 26.1201 53.6148 25.9971C53.5837 25.8741 53.5286 25.7584 53.4527 25.6567C53.3767 25.5549 53.2813 25.469 53.172 25.404C53.0627 25.339 52.9416 25.296 52.8157 25.2776C52.7689 25.2708 52.7218 25.2676 52.6745 25.2678C52.2976 25.2295 51.9167 25.2609 51.5013 25.2609V27.9341L50.6211 27.9371ZM51.5171 24.9641C51.9561 24.9561 52.3942 24.9233 52.8295 24.8658C53.0859 24.8264 53.3188 24.6945 53.4838 24.4952C53.6488 24.2958 53.7345 24.0429 53.7244 23.7847C53.7323 23.5313 53.6461 23.2839 53.4822 23.0899C53.3183 22.8958 53.0884 22.7688 52.8364 22.7331C52.4009 22.6803 51.9627 22.6537 51.524 22.6535L51.5171 24.9641ZM23.6022 27.9361V22.3341C23.8696 22.341 24.1351 22.3341 24.4005 22.3341C25.1006 22.2878 25.8037 22.3461 26.4865 22.5071C26.6638 22.535 26.833 22.6006 26.9826 22.6997C27.1321 22.7987 27.2584 22.9287 27.3528 23.0808C27.4472 23.2329 27.5076 23.4035 27.5297 23.581C27.5519 23.7584 27.5353 23.9386 27.4811 24.1091C27.4185 24.2891 27.3165 24.453 27.1826 24.5889C27.0486 24.7249 26.886 24.8295 26.7065 24.8953C26.5664 24.9612 26.4213 25.0132 26.2398 25.085C26.4164 25.1357 26.5901 25.1964 26.7598 25.2668C26.9959 25.3597 27.1977 25.5227 27.3377 25.7336C27.4777 25.9446 27.5491 26.1934 27.5423 26.4462V27.9361H26.6542V26.3381C26.6679 26.2125 26.6567 26.0856 26.6211 25.9644C26.5855 25.8432 26.5263 25.7302 26.4468 25.6318C26.3674 25.5334 26.2693 25.4516 26.1581 25.391C26.0468 25.3304 25.9247 25.2922 25.7987 25.2786C25.7681 25.2786 25.7375 25.2737 25.7079 25.2727C25.3071 25.2474 24.9052 25.2445 24.5041 25.2639V27.9322L23.6022 27.9361ZM24.4903 22.7056C24.4903 23.3936 24.4903 24.0914 24.4992 24.7862C24.4992 24.8393 24.6245 24.9336 24.6965 24.9346C25.0361 24.9447 25.376 24.9319 25.7139 24.8963C25.9862 24.8732 26.24 24.7495 26.4253 24.5494C26.6107 24.3493 26.7142 24.0874 26.7154 23.8152C26.7336 23.5472 26.646 23.2826 26.4712 23.078C26.2965 22.8733 26.0485 22.7446 25.78 22.7194C25.6231 22.6975 25.4647 22.6874 25.3063 22.6889C25.0429 22.6889 24.7725 22.7066 24.4923 22.7066L24.4903 22.7056ZM14.9771 27.9361V22.3557H18.0193V22.6634H15.8889V24.9179C16.3339 24.9179 16.771 24.9277 17.2082 24.9179C17.4657 24.9081 17.4973 25.0162 17.4213 25.2452H15.879V27.9381L14.9771 27.9361ZM34.0133 27.8948V22.2928C34.8274 22.342 35.6266 22.3616 36.42 22.452C36.6647 22.4499 36.9027 22.5318 37.094 22.6839C37.2852 22.8361 37.4179 23.0492 37.4699 23.2874C37.5218 23.5605 37.4795 23.843 37.35 24.0892C37.2206 24.3353 37.0114 24.5308 36.7565 24.6437C36.717 24.6663 36.6805 24.6948 36.6055 24.742C36.871 24.7676 37.1264 24.8569 37.3498 25.0022C37.5732 25.1475 37.7579 25.3445 37.8883 25.5764C38.0227 25.8144 38.0912 26.0837 38.087 26.3568C38.0827 26.6298 38.0058 26.8969 37.864 27.1306C37.7222 27.3644 37.5207 27.5565 37.28 27.6873C37.0393 27.8181 36.7681 27.8829 36.494 27.8752C36.1855 27.904 35.8763 27.9174 35.5665 27.9154C35.0504 27.9154 34.5314 27.8889 34.0064 27.8889L34.0133 27.8948ZM34.9113 27.656H35.6602C35.7905 27.6524 35.9204 27.6399 36.049 27.6187C36.3617 27.5797 36.6494 27.4284 36.8581 27.1931C37.0669 26.9579 37.1823 26.6549 37.1827 26.341C37.207 26.0233 37.1155 25.7076 36.925 25.4516C36.7346 25.1957 36.4579 25.0167 36.1457 24.9474C35.737 24.8947 35.3253 24.8684 34.9132 24.8688L34.9113 27.656ZM34.8945 24.5965C35.2651 24.594 35.6354 24.5713 36.0036 24.5287C36.2173 24.483 36.4063 24.3599 36.534 24.1832C36.6616 24.0064 36.7187 23.7888 36.6943 23.5724C36.7188 23.381 36.6669 23.1877 36.5497 23.034C36.4325 22.8803 36.2594 22.7786 36.0677 22.7508C35.6847 22.6924 35.2985 22.6559 34.9113 22.6417C34.9004 22.7911 34.8945 22.8688 34.8945 22.9454V24.5965Z" fill="#919191"/>
<path d="M53.8896 17.0684H54.6464C54.9166 17.0851 55.1824 16.9946 55.3858 16.8167C55.5892 16.6388 55.7136 16.388 55.7319 16.119C55.7594 15.8713 55.7699 15.6221 55.7634 15.373C55.7634 14.174 55.7723 12.976 55.7634 11.7769C55.755 11.6594 55.7731 11.5415 55.8163 11.4319C55.8595 11.3222 55.9267 11.2235 56.0131 11.143C56.4137 10.7499 56.7877 10.3381 57.2277 9.87324V14.1337H68.3779C68.3959 14.0995 68.4082 14.0627 68.4144 14.0246C68.4075 12.9946 68.4253 11.9666 68.3848 10.9386C68.3538 10.3336 68.1168 9.75715 67.7129 9.3042C67.4948 9.04104 67.2191 8.83106 66.9069 8.69036C66.5948 8.54965 66.2545 8.48194 65.9121 8.4924H64.8069C64.0708 8.4924 63.3357 8.49241 62.5996 8.49929C62.4517 8.50535 62.3077 8.54864 62.1812 8.62509C61.4984 9.02608 60.8254 9.44179 60.1475 9.84965C60.0735 9.89388 59.9956 9.93221 59.8683 10C59.8683 9.58135 59.8594 9.20495 59.8762 8.8305C59.8762 8.76268 59.9679 8.69093 60.0301 8.63392C60.283 8.42699 60.5245 8.20652 60.7534 7.97348C61.2813 7.3838 61.7855 6.77447 62.2947 6.17201C62.3568 6.0983 62.4042 6.01279 62.492 5.88502C62.5433 6.17306 62.5108 6.46969 62.3983 6.73994C62.2859 7.01019 62.0983 7.24279 61.8575 7.41034L61.9217 7.4693L66.1311 4.8914C66.0956 5.36708 66.0729 5.79165 66.0216 6.21131C66.0137 6.28306 65.8982 6.35578 65.8183 6.40787C65.0289 6.88945 64.2395 7.36415 63.4551 7.84277C63.3742 7.89093 63.2972 7.95186 63.159 8.03933C63.3258 8.04719 63.4215 8.05407 63.5172 8.05407C64.4813 8.05407 65.4443 8.0413 66.4084 8.04621C67.209 8.0873 67.9767 8.37636 68.6043 8.87306C69.232 9.36975 69.6882 10.0493 69.9093 10.8167C69.9221 10.8551 69.931 10.8946 69.936 10.9347V14.7539H57.207C57.207 15.1666 57.2386 15.5558 57.2001 15.9332C57.2072 16.3528 57.0533 16.7593 56.7698 17.0697C56.4864 17.3802 56.0947 17.5713 55.6746 17.604C55.0799 17.6758 54.4817 17.7165 53.8827 17.7259L53.8896 17.0684ZM19.1741 17.0684H19.85C20.1227 17.0973 20.3958 17.0171 20.6091 16.8455C20.8225 16.6739 20.9587 16.425 20.9878 16.1534C20.9878 16.1406 20.9878 16.1278 20.9878 16.116C21.0134 15.9585 21.0256 15.799 21.0243 15.6394C21.0243 14.3126 21.0243 12.9858 21.0331 11.6561C21.0411 11.4953 21.1026 11.3418 21.2078 11.2197C21.5976 10.7843 22.01 10.3646 22.4669 9.88406C22.4669 11.9656 22.4856 13.9607 22.46 15.9568C22.4585 16.3841 22.2927 16.7947 21.9967 17.104C21.7006 17.4133 21.2968 17.5979 20.8684 17.6197C20.3217 17.7023 19.7533 17.6875 19.1702 17.718L19.1741 17.0684ZM70.2813 17.0684H70.9612C71.1097 17.0865 71.2603 17.0725 71.4029 17.0275C71.5455 16.9824 71.6767 16.9073 71.7875 16.8072C71.8984 16.7072 71.9863 16.5845 72.0453 16.4476C72.1043 16.3107 72.133 16.1628 72.1295 16.0138C72.168 15.5165 72.1522 15.0163 72.1522 14.518C72.1522 13.5981 72.1601 12.6801 72.1522 11.7602C72.1434 11.6477 72.1603 11.5347 72.2015 11.4295C72.2426 11.3243 72.3071 11.2298 72.39 11.1529C72.7965 10.7597 73.1735 10.3361 73.6244 9.86243V15.5401C73.6289 15.8492 73.5887 16.1574 73.505 16.4551C73.4017 16.7834 73.1992 17.0718 72.9251 17.2812C72.651 17.4905 72.3187 17.6104 71.9736 17.6246C71.4269 17.6944 70.8793 17.6865 70.2863 17.7141L70.2813 17.0684ZM46.8038 17.6826V17.0684C46.9785 17.0684 47.1551 17.0585 47.3288 17.0684C48.3234 17.1362 48.6767 16.5386 48.6757 15.717C48.6757 14.4089 48.6826 13.1018 48.6678 11.7937C48.6583 11.6659 48.6779 11.5376 48.7253 11.4185C48.7726 11.2993 48.8464 11.1924 48.9411 11.1057C49.3358 10.7293 49.6979 10.3194 50.1252 9.86636V10.2595C50.1252 11.9765 50.0956 13.6944 50.1341 15.4104C50.1859 15.7037 50.1689 16.0051 50.0846 16.2908C50.0003 16.5766 49.8508 16.8392 49.6478 17.0579C49.4449 17.2767 49.194 17.4459 48.9146 17.5522C48.6352 17.6585 48.335 17.6991 48.0373 17.6708C47.8883 17.6807 47.7412 17.6836 47.5873 17.6836C47.3288 17.6836 47.0693 17.6738 46.7979 17.6738L46.8038 17.6826ZM11.8338 17.6718V16.2821H13.2448V17.6718H11.8338ZM26.2846 14.6929C26.032 14.7065 25.7795 14.6642 25.5452 14.5692C25.3109 14.4741 25.1007 14.3286 24.9295 14.1431C24.7583 13.9576 24.6305 13.7366 24.5551 13.4961C24.4798 13.2556 24.4588 13.0014 24.4936 12.7519C24.4749 10.8433 24.4867 8.93762 24.4936 7.02704C24.4929 6.91877 24.5319 6.81394 24.6032 6.7322C25.0245 6.3204 25.4606 5.92335 25.957 5.45455V12.7165C25.9535 12.8563 25.9595 12.9962 25.9747 13.1352C25.9796 13.2722 26.0115 13.4069 26.0687 13.5316C26.1259 13.6563 26.2073 13.7685 26.3081 13.8618C26.4089 13.9551 26.5273 14.0277 26.6563 14.0754C26.7854 14.123 26.9226 14.1449 27.0601 14.1396H27.0848C28.4399 14.1527 29.7954 14.1527 31.1512 14.1396C31.4245 14.1557 31.693 14.0631 31.8979 13.8822C32.1027 13.7012 32.227 13.4467 32.2435 13.1745C32.2435 13.1607 32.2435 13.148 32.2435 13.1342C31.6317 13.1342 31.0239 13.1254 30.418 13.1342C30.0254 13.1445 29.6356 13.0649 29.2787 12.9015C28.9219 12.7381 28.6075 12.4952 28.3597 12.1917C27.9603 11.7606 27.7449 11.1918 27.7588 10.6054C27.7686 10.1858 27.738 9.76612 27.743 9.34647C27.7133 8.67785 27.9493 8.0245 28.3997 7.52786C28.8501 7.03122 29.4788 6.73126 30.1496 6.69289C31.3268 6.60739 32.5178 6.6752 33.7285 6.6752C33.7355 6.78429 33.7443 6.89339 33.7443 7.00248V12.6389C33.7443 13.8978 33.1523 14.6615 31.9041 14.7096C31.0844 14.7411 30.2621 14.7562 29.4372 14.7548C28.3847 14.7548 27.3322 14.7309 26.2796 14.6831L26.2846 14.6929ZM29.4767 8.05211C29.3886 8.21971 29.3242 8.39864 29.2853 8.58381C29.1046 9.45653 29.1046 10.3568 29.2853 11.2295C29.3679 11.5261 29.4953 11.8084 29.6632 12.0669C29.7388 12.2038 29.8495 12.3183 29.984 12.3987C30.1185 12.4792 30.272 12.5227 30.4289 12.5249C31.0387 12.5366 31.6485 12.5249 32.2938 12.5249V7.30419C31.7018 7.30419 31.1314 7.31402 30.5621 7.30419H30.5315C30.3 7.30824 30.075 7.3818 29.8861 7.51524C29.6972 7.64868 29.5531 7.83579 29.4727 8.05211H29.4767ZM78.2147 14.7539C77.7728 14.7577 77.332 14.7095 76.9014 14.6104C76.5365 14.536 76.209 14.3376 75.975 14.0491C75.7409 13.7606 75.6149 13.3999 75.6186 13.029C75.5959 11.0113 75.6058 8.99954 75.6058 6.97496C75.6031 6.8957 75.6294 6.81817 75.6798 6.75678C76.1179 6.33614 76.5679 5.92531 77.0612 5.4634V13.0074C77.0553 13.1665 77.084 13.3249 77.1453 13.4718C77.2067 13.6188 77.2992 13.7508 77.4165 13.8588C77.5339 13.9668 77.6733 14.0483 77.8252 14.0976C77.9771 14.1469 78.1379 14.1629 78.2966 14.1445H87.4033C87.4212 14.1066 87.4344 14.0667 87.4427 14.0256C87.4358 13.0428 87.4546 12.06 87.4111 11.09C87.3793 10.5146 87.1651 9.96403 86.7994 9.51747C86.5992 9.24027 86.3355 9.01463 86.0302 8.85926C85.7249 8.70389 85.3868 8.62327 85.044 8.6241C83.3665 8.61886 81.689 8.61886 80.0116 8.6241C79.8739 8.63283 79.7407 8.67647 79.6248 8.75088C79.0229 9.10469 78.4279 9.47128 77.7776 9.86342C77.7776 9.44966 77.7677 9.10077 77.7845 8.75187C77.7888 8.70156 77.8036 8.65268 77.8279 8.60836C77.8522 8.56403 77.8855 8.52522 77.9256 8.49437C79.9372 7.25341 81.9522 6.01835 83.9704 4.78919C83.997 4.78399 84.0241 4.78136 84.0513 4.78133C84.0168 5.21671 83.9921 5.64522 83.9418 6.07176C83.9329 6.14252 83.8076 6.20837 83.7227 6.25849C82.8682 6.78134 82.0117 7.29928 81.1572 7.81918C81.062 7.8711 80.9816 7.94616 80.9233 8.03737C81.47 8.03737 82.0176 8.02557 82.5643 8.03737C83.6184 8.02223 84.6725 8.06489 85.7218 8.16514C86.3296 8.23636 86.9112 8.45212 87.4176 8.79422C87.9241 9.13632 88.3405 9.59472 88.6317 10.1307C88.8285 10.4666 88.946 10.8427 88.9751 11.2305C89.0186 12.3863 88.9919 13.547 88.9919 14.7489H83.6902C81.8653 14.7561 80.0405 14.7561 78.2157 14.7489L78.2147 14.7539ZM7.41909 14.7607C5.68144 14.7607 3.94577 14.7607 2.2091 14.747C1.91845 14.7405 1.62961 14.6996 1.34867 14.6251C0.96548 14.5417 0.623376 14.3281 0.38104 14.0209C0.138704 13.7137 0.0112397 13.3321 0.0205129 12.9416C-0.0130362 11.5932 0.00373789 10.2447 0.00768485 8.89536C0.0146007 8.81129 0.0538386 8.73313 0.117213 8.67717C0.538551 8.34204 0.969756 8.01672 1.46115 7.64031V12.6831C1.46139 12.8527 1.47558 13.022 1.50358 13.1892C1.51889 13.4539 1.63745 13.7022 1.83397 13.881C2.03048 14.0599 2.28939 14.1551 2.55545 14.1465C3.85005 14.1681 5.14466 14.1465 6.43926 14.1465C6.45702 14.1465 6.47478 14.1317 6.53793 14.1052C6.3988 13.7484 6.26954 13.3858 6.11758 13.033C5.63704 11.9135 5.12295 10.8099 4.67595 9.67767C4.51721 9.23835 4.42767 8.77719 4.41052 8.31059C4.39987 8.20442 4.41267 8.09723 4.44802 7.99652C4.48338 7.8958 4.54043 7.80401 4.61518 7.72759C4.68993 7.65117 4.78057 7.59196 4.88073 7.55414C4.98089 7.51631 5.08815 7.50078 5.19498 7.50862C5.67592 7.49157 6.15743 7.49911 6.63759 7.53122C6.98604 7.56309 7.31859 7.69145 7.5976 7.90178C7.87661 8.11212 8.09095 8.39603 8.21637 8.7214C8.56469 9.42705 8.85776 10.1612 9.1745 10.8836C9.49124 11.6059 9.79023 12.3362 10.1326 13.0457C10.2741 13.4141 10.536 13.7242 10.8762 13.9261C11.2163 14.1279 11.6149 14.2097 12.0074 14.1583C12.1387 14.1474 12.2706 14.1451 12.4021 14.1514H12.5995C12.7806 14.1786 12.9656 14.1641 13.1402 14.1089C13.3148 14.0537 13.4743 13.9594 13.6065 13.8331C13.7387 13.7068 13.8401 13.552 13.9028 13.3806C13.9655 13.2091 13.9878 13.0257 13.9681 12.8443C13.9957 11.9656 13.9809 11.085 13.9839 10.2074V8.58774C13.9783 8.50353 14.0063 8.42053 14.0618 8.35678C14.494 8.07471 14.9371 7.80641 15.4196 7.50567V12.4934C15.4595 12.7711 15.4386 13.0542 15.3582 13.3231C15.2778 13.592 15.1399 13.8404 14.954 14.0512C14.768 14.262 14.5385 14.4302 14.2811 14.5442C14.0237 14.6582 13.7445 14.7153 13.4629 14.7116C12.6835 14.78 11.8992 14.7678 11.1223 14.6752C10.7193 14.626 10.3383 14.4649 10.0229 14.2103C9.70741 13.9557 9.47019 13.6179 9.3383 13.2354C8.81039 12.0079 8.27262 10.7784 7.71512 9.56858C7.51702 9.17728 7.29491 8.79852 7.05005 8.43443C6.99787 8.33721 6.91596 8.25906 6.81619 8.21133C6.64351 8.15531 6.41459 8.07274 6.28532 8.14252C6.21589 8.19926 6.16157 8.27217 6.12715 8.3548C6.09273 8.43742 6.07927 8.52721 6.08798 8.61624C6.1793 9.02374 6.30676 9.42235 6.46886 9.80739C7.11814 11.4064 7.78123 13.0005 8.44234 14.5956C8.4601 14.6477 8.4749 14.7008 8.48773 14.7539H7.41317L7.41909 14.7607ZM17.5865 14.7539C17.5796 14.6556 17.5697 14.5573 17.5697 14.4669C17.5697 12.0099 17.5723 9.55285 17.5776 7.09583C17.5855 6.93343 17.6504 6.77898 17.7611 6.65948C18.145 6.26636 18.5505 5.89682 18.9926 5.48798V14.7539H17.5865ZM52.1845 14.745V14.4669C52.1845 12.0085 52.1875 9.54957 52.1934 7.08994C52.1998 6.9274 52.2646 6.77256 52.376 6.65357C52.7618 6.26045 53.1713 5.89976 53.6192 5.48207V14.744L52.1845 14.745ZM39.7299 14.7313C39.5291 14.724 39.3301 14.691 39.1379 14.633C38.7515 14.5457 38.4069 14.3289 38.1617 14.0189C37.9165 13.7088 37.7856 13.3244 37.7909 12.9298C37.7712 11.5922 37.7831 10.2526 37.7909 8.91305C37.7849 8.83679 37.8078 8.76104 37.8551 8.70076C38.2932 8.35383 38.7362 8.0187 39.2365 7.63737V12.9042C39.2197 13.0776 39.2426 13.2526 39.3035 13.4159C39.3645 13.5793 39.4618 13.7267 39.5883 13.847C39.7148 13.9674 39.867 14.0576 40.0336 14.1109C40.2002 14.1641 40.3767 14.179 40.5499 14.1543H44.5748C44.4347 13.8163 44.3172 13.5234 44.19 13.2364C43.7953 12.365 43.4006 11.4932 43.0059 10.6212C42.8259 10.3075 42.7314 9.95239 42.732 9.59112C42.7325 9.22984 42.8279 8.87498 43.0088 8.56184C43.1897 8.24869 43.4498 7.98817 43.7631 7.80615C44.0764 7.62414 44.4321 7.52698 44.7948 7.52434C45.2882 7.47618 45.7964 7.51549 46.3174 7.51549V8.06096C46.0149 8.04532 45.7117 8.04827 45.4096 8.0698C45.1131 8.09268 44.8233 8.16998 44.555 8.29781C44.4404 8.34535 44.3363 8.41492 44.2487 8.50254C44.1611 8.59016 44.0916 8.69413 44.0443 8.80848C43.997 8.92284 43.9729 9.04535 43.9731 9.16903C43.9734 9.2927 43.9981 9.41512 44.0459 9.52927C44.0657 9.57702 44.0895 9.62304 44.1169 9.66686C44.732 11.0972 45.3441 12.5288 45.9533 13.9617C46.0628 14.2172 46.1506 14.4787 46.2562 14.7421H43.6305L39.7358 14.7332L39.7299 14.7313ZM55.7871 9.29339V7.93122H57.2179V9.29339H55.7871ZM30.5877 5.38673V4H32.0096V5.38673H30.5877Z" fill="#919191"/>
<path d="M109.558 32C109.265 31.8327 108.976 31.6593 108.679 31.5C106.369 30.263 104.057 29.0287 101.743 27.7971C101.672 27.7682 101.611 27.7174 101.572 27.6523C101.533 27.5872 101.516 27.5113 101.525 27.4363C101.538 26.7555 101.53 26.0748 101.53 25.3954V25.1457H104.754C104.829 25.1498 104.904 25.137 104.973 25.1083C105.042 25.0797 105.103 25.0359 105.152 24.9804C105.88 24.2253 106.615 23.4772 107.356 22.736C107.44 22.6619 107.548 22.619 107.662 22.6148C108.341 22.6041 109.019 22.6095 109.723 22.6095V16.9641L117.455 16.622C117.436 16.6728 117.413 16.7225 117.387 16.7706C117.098 17.2673 116.803 17.7613 116.52 18.2626C116.494 18.3164 116.452 18.3614 116.4 18.3917C116.347 18.422 116.287 18.4363 116.226 18.4327C114.758 18.507 113.291 18.5899 111.822 18.6709C111.785 18.6736 111.748 18.6785 111.711 18.6857C111.707 18.76 111.7 18.8269 111.7 18.8925C111.7 20.0639 111.7 21.2353 111.706 22.4047C111.712 22.5219 111.759 22.6336 111.839 22.7213C112.581 23.4901 113.33 24.2532 114.085 25.0105C114.168 25.0859 114.277 25.1296 114.39 25.1337C115.399 25.1417 116.408 25.139 117.42 25.139H117.674V25.4543C117.674 26.129 117.674 26.8017 117.678 27.4758C117.684 27.5349 117.671 27.5945 117.64 27.6458C117.609 27.697 117.561 27.7371 117.505 27.7602C114.928 29.132 112.353 30.5075 109.781 31.8869C109.72 31.9197 109.663 31.9612 109.604 31.994L109.558 32ZM107.201 24.9717C107.14 24.9665 107.079 24.9824 107.029 25.0165C106.808 25.2508 106.597 25.4944 106.363 25.7588C106.439 25.789 106.467 25.8037 106.501 25.8157C107.493 26.1638 108.486 26.5166 109.478 26.8546C109.577 26.8797 109.681 26.8736 109.775 26.8372C110.71 26.5146 111.643 26.1832 112.576 25.8539C112.652 25.8271 112.729 25.797 112.828 25.7575C112.598 25.5011 112.395 25.2622 112.179 25.0333C112.127 24.9917 112.061 24.9703 111.993 24.973H107.202L107.201 24.9717ZM106.932 18.6227C105.667 18.5612 104.402 18.4741 103.137 18.4393C102.945 18.4608 102.75 18.4199 102.584 18.3232C102.417 18.2264 102.288 18.079 102.217 17.9038C101.987 17.4572 101.734 17.022 101.459 16.5999L107.355 16.8603C107.443 17.444 107.531 18.0257 107.622 18.6261C107.469 18.6261 107.316 18.6301 107.175 18.6301C107.093 18.6321 107.012 18.6288 106.932 18.6241V18.6227ZM109.15 10.9498L119.997 6.09827C119.71 8.92433 119.428 11.7136 119.144 14.5222L109.15 10.9498ZM99 5.38807C99.5426 5.15446 100.078 4.91951 100.613 4.6926C104.189 3.15886 107.764 1.62178 111.338 0.0813524C111.644 -0.0105693 111.97 -0.024862 112.284 0.0398439C113.408 0.102764 114.531 0.18845 115.658 0.268774C116.422 0.322323 117.181 0.371856 117.94 0.436115C118.002 0.44147 118.078 0.532506 118.105 0.599442C118.691 2.04705 119.273 3.49511 119.853 4.94361C119.899 5.0574 119.943 5.17254 120 5.31511L100.14 14.3348C99.7561 11.336 99.3788 8.37143 99 5.38941V5.38807Z" fill="#919191"/>
</svg>
