<svg width="414" height="416" viewBox="0 0 414 416" fill="none" xmlns="http://www.w3.org/2000/svg">
<path d="M379.304 195.835C318.927 195.835 329.068 195.591 288.832 195.835C246.437 196.128 208.643 193.201 171.6 231.687C97.9833 308.075 83.5229 323.148 0 409.926C16.3384 418.901 42.3483 419.779 61.3628 396.999C161.13 451.973 266.015 367.439 266.86 266.808C267.142 233.053 283.48 208.225 322.918 206.81C334.749 206.371 379.445 205.493 379.445 205.493C381.933 205.396 383.952 203.298 383.952 200.664C383.952 198.03 381.839 195.835 379.304 195.835Z" fill="url(#paint0_linear_30_79)"/>
<path d="M408.226 174.762C394.611 174.664 390.527 175.152 345.455 173.981C305.267 172.957 284.891 153.494 284.937 118.666C284.937 118.666 284.937 118.617 284.891 118.568C284.891 118.568 284.937 22.8641 284.937 10.1816C270.055 4.08425 253.81 0.718506 236.861 0.718506C164.184 0.718506 105.215 61.9361 105.215 137.495C105.215 154.128 108.079 170.079 113.338 184.859C116.812 184.859 408.227 184.859 408.273 184.859C410.95 184.859 413.109 182.615 413.109 179.835C413.109 177.054 410.95 174.81 408.273 174.81L408.226 174.762Z" fill="url(#paint1_linear_30_79)"/>
<defs>
<linearGradient id="paint0_linear_30_79" x1="191.976" y1="195.727" x2="191.976" y2="415.813" gradientUnits="userSpaceOnUse">
<stop stop-color="#FEA244"/>
<stop offset="1" stop-color="#FEA244" stop-opacity="0.72"/>
</linearGradient>
<linearGradient id="paint1_linear_30_79" x1="259.162" y1="0.718506" x2="259.162" y2="184.859" gradientUnits="userSpaceOnUse">
<stop stop-color="#FEA244"/>
<stop offset="1" stop-color="#FEA244" stop-opacity="0.72"/>
</linearGradient>
</defs>
</svg>
