<svg width="184" height="59" viewBox="0 0 184 59" fill="none" xmlns="http://www.w3.org/2000/svg">
<path d="M114.117 20.125V39.5168C114.117 39.6902 114.089 39.8925 114.034 40.0948C113.84 40.8462 113.286 41.2508 112.567 41.3664C112.151 41.4242 111.708 41.3664 111.293 41.3664C110.601 41.3664 94.875 41.482 94.875 41.482C94.875 47.0886 94.875 52.5506 94.875 58.1572C94.875 58.2728 94.875 58.3884 94.875 58.504C94.875 58.7641 95.0411 58.9086 95.2903 58.9375C95.401 58.9375 95.5118 58.9375 95.5949 58.9375C101.104 58.9375 106.642 58.9375 112.151 58.9375C114.089 58.9375 116 58.6774 117.827 58.0416C121.842 56.6833 125.109 54.2268 127.49 50.5854C129.732 47.1753 130.84 43.4761 130.812 39.5168V20.125H114.117Z" fill="#161616"/>
<path d="M183.738 36.6893C183.276 33.2843 181.918 30.2255 179.809 27.513C178.162 25.4065 176.14 23.704 173.8 22.4343C170.882 20.8472 167.733 20.0969 164.411 20.1258C161.349 20.1258 159.644 20.1258 157.853 20.1547C157.853 20.1547 157.853 20.1547 157.824 20.1547C157.709 20.1547 157.593 20.1547 157.506 20.1547C151.757 20.1547 156.033 20.1547 150.284 20.1547C148.262 20.1547 146.268 20.4144 144.362 21.0492C140.173 22.4054 136.764 24.8582 134.279 28.4941C131.997 31.7837 130.841 35.3908 130.812 39.2287C130.812 39.2287 130.812 39.2575 130.812 39.2864V57.437C130.812 58.2738 131.506 58.9375 132.344 58.9375H152.74C157.824 58.9375 159.038 58.8798 164.527 58.8798C166.549 58.8798 168.542 58.6201 170.449 57.9852C174.638 56.629 178.047 54.1762 180.531 50.5403C183.42 46.385 184.489 41.768 183.796 36.7759L183.738 36.6893ZM152.277 42.0854H149.706C148.233 42.0854 147.02 40.8735 147.02 39.4018C147.02 37.9301 148.233 36.7182 149.706 36.7182H152.277V42.1143V42.0854ZM164.989 42.0854H162.418V36.6893H164.989C166.462 36.6893 167.675 37.9013 167.675 39.3729C167.675 40.8446 166.462 42.0566 164.989 42.0566V42.0854Z" fill="#161616"/>
<path d="M159.053 29.4094C159.865 28.5344 160.14 28.3017 162.775 25.356C165.126 22.7305 165.153 20.3044 163.01 18.2941C163.01 18.2941 163.007 18.2913 163.007 18.2855C163.007 18.2855 157.122 12.7563 156.343 12.0232C156.862 10.7204 157.63 9.48856 158.648 8.4063C163.013 3.76545 170.317 3.53867 174.961 7.90632C175.983 8.86782 176.792 9.97273 177.384 11.1629C177.176 11.3847 159.674 29.9931 159.671 29.9961C159.51 30.167 159.243 30.1752 159.072 30.0144C158.901 29.8537 158.893 29.5861 159.054 29.4152L159.053 29.4094Z" fill="#F78C1E"/>
<path d="M19.2421 20.125V39.5168C19.2421 39.6902 19.2144 39.8925 19.159 40.0948C18.9652 40.8462 18.4115 41.2508 17.6916 41.3664C17.2763 41.4242 16.8333 41.3664 16.4181 41.3664C15.7259 41.3664 0 41.482 0 41.482C0 47.0886 0 52.5506 0 58.1572C0 58.2728 0 58.3884 0 58.504C0 58.7641 0.166123 58.9086 0.415301 58.9375C0.526046 58.9375 0.636794 58.9375 0.719853 58.9375C6.22945 58.9375 11.7667 58.9375 17.2763 58.9375C19.2144 58.9375 21.1247 58.6774 22.9521 58.0416C26.9666 56.6833 30.2336 54.2268 32.6146 50.5854C34.8572 47.1753 35.9647 43.4761 35.937 39.5168V20.125H19.2421Z" fill="#161616"/>
<path d="M88.8631 36.6893C88.4008 33.2843 87.043 30.2255 84.9341 27.513C83.2874 25.4065 81.2652 23.704 78.9251 22.4343C76.0073 20.8472 72.8583 20.0969 69.536 20.1258C66.4737 20.1258 64.7692 20.1258 62.9781 20.1547C62.9781 20.1547 62.9781 20.1547 62.9492 20.1547C62.8337 20.1547 62.7181 20.1547 62.6314 20.1547C56.8824 20.1547 61.1581 20.1547 55.409 20.1547C53.3868 20.1547 51.3934 20.4144 49.4867 21.0492C45.2977 22.4054 41.8887 24.8582 39.4042 28.4941C37.122 31.7837 35.9664 35.3908 35.9375 39.2287C35.9375 39.2287 35.9375 39.2575 35.9375 39.2864V57.437C35.9375 58.2738 36.6308 58.9375 37.4686 58.9375H57.8646C62.9492 58.9375 64.1625 58.8798 69.6516 58.8798C71.6738 58.8798 73.6672 58.6201 75.5739 57.9852C79.7629 56.629 83.1718 54.1762 85.6563 50.5403C88.5453 46.385 89.6142 41.768 88.9208 36.7759L88.8631 36.6893ZM57.4024 42.0854H54.8312C53.3579 42.0854 52.1445 40.8735 52.1445 39.4018C52.1445 37.9301 53.3579 36.7182 54.8312 36.7182H57.4024V42.1143V42.0854ZM70.1138 42.0854H67.5426V36.6893H70.1138C71.5872 36.6893 72.8005 37.9013 72.8005 39.3729C72.8005 40.8446 71.5872 42.0566 70.1138 42.0566V42.0854Z" fill="#161616"/>
<path d="M64.1784 29.4094C64.9901 28.5344 65.2654 28.3017 67.9003 25.356C70.2509 22.7305 70.2785 20.3044 68.1351 18.2941C68.1351 18.2941 68.1321 18.2913 68.1319 18.2855C68.1319 18.2855 62.2471 12.7563 61.4676 12.0232C61.9867 10.7204 62.7555 9.48856 63.7734 8.4063C68.1382 3.76545 75.4421 3.53867 80.086 7.90632C81.1083 8.86782 81.9166 9.97273 82.5092 11.1629C82.3006 11.3847 64.7989 29.9931 64.7961 29.9961C64.6354 30.167 64.3678 30.1752 64.1969 30.0144C64.026 29.8537 64.0178 29.5861 64.1785 29.4152L64.1784 29.4094Z" fill="#F78C1E"/>
</svg>
