<svg width="169" height="86" viewBox="0 0 169 86" fill="none" xmlns="http://www.w3.org/2000/svg">
<path d="M80.79 40C67.93 40 70.09 39.95 61.52 40C52.49 40.06 44.44 39.46 36.55 47.35C20.87 63.01 17.79 66.1 0 83.89C3.48 85.73 9.02 85.91 13.07 81.24C34.32 92.51 56.66 75.18 56.84 54.55C56.9 47.63 60.38 42.54 68.78 42.25C71.3 42.16 80.82 41.98 80.82 41.98C81.35 41.96 81.78 41.53 81.78 40.99C81.78 40.45 81.33 40 80.79 40Z" fill="#F78C1E"/>
<path d="M86.9499 35.68C84.0499 35.66 83.1799 35.76 73.5799 35.52C65.0199 35.31 60.6799 31.32 60.6899 24.18C60.6899 24.18 60.6899 24.17 60.6799 24.16C60.6799 24.16 60.6899 4.54 60.6899 1.94C57.5199 0.69 54.0599 0 50.4499 0C34.9699 0 22.4099 12.55 22.4099 28.04C22.4099 31.45 23.0199 34.72 24.1399 37.75C24.8799 37.75 86.9499 37.75 86.9599 37.75C87.5299 37.75 87.9899 37.29 87.9899 36.72C87.9899 36.15 87.5299 35.69 86.9599 35.69L86.9499 35.68Z" fill="#F78C1E"/>
<path d="M127.7 79.9H125.94V80.01C125.94 81.38 125.94 82.75 125.94 84.12C125.94 84.33 125.89 84.38 125.68 84.38C123.7 84.38 122.21 84.38 120.24 84.38C120.06 84.38 120 84.33 120 84.14C120 79.84 120 75.54 120 71.24C120 71.06 120.06 71 120.24 71C122.22 71 123.71 71 125.69 71C125.88 71 125.94 71.06 125.94 71.25C125.94 72.72 125.94 74.19 125.94 75.67V75.79H127.7C127.7 75.79 127.7 75.71 127.7 75.67C127.7 74.21 127.7 72.75 127.7 71.29C127.7 71.25 127.7 71.21 127.7 71.18C127.71 71.09 127.77 71.03 127.86 71.02C127.89 71.02 127.93 71.02 127.97 71.02C129.94 71.02 131.42 71.02 133.39 71.02C133.41 71.02 133.44 71.02 133.46 71.02C133.56 71.02 133.62 71.09 133.63 71.19C133.63 71.23 133.63 71.27 133.63 71.31C133.63 75.57 133.63 79.84 133.63 84.1C133.63 84.12 133.63 84.15 133.63 84.17C133.63 84.34 133.58 84.39 133.4 84.39C131.42 84.39 129.92 84.39 127.94 84.39C127.74 84.39 127.69 84.33 127.69 84.13C127.69 82.76 127.69 81.4 127.69 80.03C127.69 79.99 127.69 79.95 127.69 79.91L127.7 79.9Z" fill="white"/>
<path d="M144.57 71C140.84 71 137.83 73.98 137.83 77.7C137.83 81.41 140.81 84.37 144.56 84.38C148.29 84.38 151.3 81.41 151.3 77.7C151.3 73.98 148.31 71.01 144.57 71.01V71ZM144.57 78.68C144.03 78.68 143.6 78.24 143.6 77.71C143.6 77.18 144.04 76.74 144.57 76.74C145.1 76.74 145.54 77.18 145.54 77.71C145.54 78.24 145.1 78.68 144.57 78.68Z" fill="white"/>
<path d="M168.4 76.73C168.24 75.55 167.77 74.49 167.04 73.56C166.47 72.83 165.77 72.24 164.96 71.8C163.95 71.25 162.87 71 161.72 71C159.74 71 157.77 71 155.79 71C155.76 71 155.72 71 155.69 71C155.58 71 155.52 71.07 155.51 71.17C155.51 71.21 155.51 71.25 155.51 71.28C155.51 73.41 155.51 75.54 155.51 77.68C155.51 79.82 155.51 81.96 155.51 84.09C155.51 84.13 155.51 84.17 155.51 84.2C155.51 84.29 155.57 84.34 155.66 84.35C155.7 84.35 155.74 84.35 155.77 84.35C157.76 84.35 159.75 84.35 161.73 84.35C162.43 84.35 163.11 84.26 163.78 84.04C165.23 83.57 166.4 82.72 167.27 81.47C168.26 80.03 168.63 78.44 168.39 76.71L168.4 76.73ZM161.76 78.67H160.84V76.73H161.76C162.3 76.73 162.73 77.17 162.73 77.7C162.73 78.23 162.3 78.67 161.76 78.67Z" fill="white"/>
<path d="M75.97 80.2899H74.21V80.3999C74.21 81.7699 74.21 83.1399 74.21 84.5099C74.21 84.7199 74.16 84.7699 73.95 84.7699C71.97 84.7699 70.48 84.7699 68.51 84.7699C68.33 84.7699 68.27 84.7199 68.27 84.5299C68.27 80.2299 68.27 75.9299 68.27 71.6299C68.27 71.4499 68.33 71.3899 68.51 71.3899C70.49 71.3899 71.98 71.3899 73.96 71.3899C74.15 71.3899 74.21 71.4499 74.21 71.6399C74.21 73.1099 74.21 74.5799 74.21 76.0599V76.1799H75.97C75.97 76.1799 75.97 76.0999 75.97 76.0599C75.97 74.5999 75.97 73.1399 75.97 71.6799C75.97 71.6399 75.97 71.5999 75.97 71.5699C75.98 71.4799 76.04 71.4199 76.13 71.4099C76.16 71.4099 76.2 71.4099 76.24 71.4099C78.21 71.4099 79.69 71.4099 81.66 71.4099C81.68 71.4099 81.71 71.4099 81.73 71.4099C81.83 71.4099 81.89 71.4799 81.9 71.5799C81.9 71.6199 81.9 71.6599 81.9 71.6999C81.9 75.9599 81.9 80.2299 81.9 84.4899C81.9 84.5099 81.9 84.5399 81.9 84.5599C81.9 84.7299 81.85 84.7799 81.67 84.7799C79.69 84.7799 78.19 84.7799 76.21 84.7799C76.01 84.7799 75.96 84.7199 75.96 84.5199C75.96 83.1499 75.96 81.7899 75.96 80.4199C75.96 80.3799 75.96 80.3399 75.96 80.2999L75.97 80.2899Z" fill="white"/>
<path d="M89.8401 71.3899C86.1101 71.3899 83.1001 74.3699 83.1001 78.0899C83.1001 81.7999 86.0801 84.7599 89.8301 84.7699C93.5601 84.7699 96.5701 81.7999 96.5701 78.0899C96.5701 74.3699 93.5801 71.3999 89.8401 71.3999V71.3899ZM89.8401 79.0699C89.3001 79.0699 88.8701 78.6299 88.8701 78.0999C88.8701 77.5699 89.3101 77.1299 89.8401 77.1299C90.3701 77.1299 90.8101 77.5699 90.8101 78.0999C90.8101 78.6299 90.3701 79.0699 89.8401 79.0699Z" fill="white"/>
<path d="M110.67 77.1199C110.51 75.9399 110.04 74.8799 109.31 73.9499C108.74 73.2199 108.04 72.6299 107.23 72.1899C106.22 71.6399 105.14 71.3899 103.99 71.3899C102.01 71.3899 100.04 71.3899 98.06 71.3899C98.03 71.3899 97.99 71.3899 97.96 71.3899C97.85 71.3899 97.79 71.4599 97.78 71.5599C97.78 71.5999 97.78 71.6399 97.78 71.6699C97.78 73.7999 97.78 75.9299 97.78 78.0699C97.78 80.2099 97.78 82.3499 97.78 84.4799C97.78 84.5199 97.78 84.5599 97.78 84.5899C97.78 84.6799 97.84 84.7299 97.93 84.7399C97.97 84.7399 98.01 84.7399 98.04 84.7399C100.03 84.7399 102.02 84.7399 104 84.7399C104.7 84.7399 105.38 84.6499 106.05 84.4299C107.5 83.9599 108.67 83.1099 109.54 81.8599C110.53 80.4199 110.9 78.8299 110.66 77.0999L110.67 77.1199ZM104.03 79.0599H103.11V77.1199H104.03C104.57 77.1199 105 77.5599 105 78.0899C105 78.6199 104.57 79.0599 104.03 79.0599Z" fill="white"/>
</svg>
