<svg width="149" height="51" viewBox="0 0 149 51" fill="none" xmlns="http://www.w3.org/2000/svg">
<path d="M92.41 17.7212V34.0578C92.41 34.2038 92.3876 34.3743 92.3428 34.5447C92.1858 35.1777 91.7374 35.5186 91.1545 35.6159C90.8182 35.6646 90.4595 35.6159 90.1232 35.6159C89.5627 35.6159 76.8281 35.7133 76.8281 35.7133C76.8281 40.4366 76.8281 45.0381 76.8281 49.7613C76.8281 49.8587 76.8281 49.9561 76.8281 50.0535C76.8281 50.2726 76.9626 50.3943 77.1644 50.4187C77.2541 50.4187 77.3438 50.4187 77.411 50.4187C81.8726 50.4187 86.3566 50.4187 90.8182 50.4187C92.3876 50.4187 93.9346 50.1996 95.4143 49.6639C98.6652 48.5197 101.311 46.4502 103.239 43.3825C105.055 40.5096 105.952 37.3933 105.929 34.0578V17.7212H92.41Z" fill="#161616"/>
<path d="M148.788 31.6757C148.414 28.8072 147.314 26.2303 145.606 23.9452C144.273 22.1706 142.635 20.7363 140.74 19.6667C138.377 18.3296 135.828 17.6976 133.137 17.7219C130.657 17.7219 129.277 17.7219 127.827 17.7462C127.827 17.7462 127.827 17.7462 127.803 17.7462C127.71 17.7462 127.616 17.7462 127.546 17.7462C122.891 17.7462 126.353 17.7462 121.697 17.7462C120.06 17.7462 118.446 17.965 116.902 18.4998C113.509 19.6423 110.749 21.7087 108.737 24.7717C106.889 27.5431 105.953 30.5818 105.93 33.815C105.93 33.815 105.93 33.8393 105.93 33.8636V49.1546C105.93 49.8595 106.491 50.4187 107.17 50.4187H123.686C127.803 50.4187 128.786 50.3701 133.231 50.3701C134.868 50.3701 136.483 50.1513 138.027 49.6165C141.419 48.4739 144.179 46.4075 146.191 43.3445C148.531 39.8439 149.396 35.9543 148.835 31.7487L148.788 31.6757ZM123.312 36.2217H121.229C120.036 36.2217 119.054 35.2007 119.054 33.9609C119.054 32.7211 120.036 31.7001 121.229 31.7001H123.312V36.246V36.2217ZM133.605 36.2217H131.523V31.6757H133.605C134.798 31.6757 135.781 32.6968 135.781 33.9366C135.781 35.1764 134.798 36.1974 133.605 36.1974V36.2217Z" fill="#161616"/>
<path d="M128.801 25.5427C129.458 24.8055 129.681 24.6096 131.815 22.128C133.718 19.9161 133.74 17.8722 132.005 16.1787C132.005 16.1787 132.002 16.1763 132.002 16.1714C132.002 16.1714 127.237 11.5134 126.605 10.8958C127.026 9.79823 127.648 8.76046 128.473 7.84871C132.007 3.93904 137.922 3.74799 141.682 7.4275C142.51 8.23752 143.165 9.16834 143.645 10.171C143.476 10.3579 129.303 26.0344 129.301 26.037C129.171 26.1809 128.954 26.1878 128.816 26.0524C128.677 25.917 128.671 25.6916 128.801 25.5476L128.801 25.5427Z" fill="#F78C1E"/>
<path d="M15.5819 17.7212V34.0578C15.5819 34.2038 15.5595 34.3743 15.5146 34.5447C15.3577 35.1777 14.9093 35.5186 14.3264 35.6159C13.9901 35.6646 13.6314 35.6159 13.2951 35.6159C12.7346 35.6159 0 35.7133 0 35.7133C0 40.4366 0 45.0381 0 49.7613C0 49.8587 0 49.9561 0 50.0535C0 50.2726 0.134523 50.3943 0.336303 50.4187C0.425983 50.4187 0.515665 50.4187 0.582924 50.4187C5.0445 50.4187 9.52849 50.4187 13.9901 50.4187C15.5595 50.4187 17.1065 50.1996 18.5862 49.6639C21.8371 48.5197 24.4826 46.4502 26.4107 43.3825C28.2268 40.5096 29.1236 37.3933 29.1012 34.0578V17.7212H15.5819Z" fill="#161616"/>
<path d="M71.9598 31.6757C71.5854 28.8072 70.4859 26.2303 68.7781 23.9452C67.4447 22.1706 65.8071 20.7363 63.9122 19.6667C61.5494 18.3296 58.9994 17.6976 56.3091 17.7219C53.8293 17.7219 52.449 17.7219 50.9986 17.7462C50.9986 17.7462 50.9986 17.7462 50.9752 17.7462C50.8816 17.7462 50.788 17.7462 50.7178 17.7462C46.0624 17.7462 49.5247 17.7462 44.8693 17.7462C43.2317 17.7462 41.6175 17.965 40.0735 18.4998C36.6813 19.6423 33.9208 21.7087 31.9089 24.7717C30.0607 27.5431 29.125 30.5818 29.1016 33.815C29.1016 33.815 29.1016 33.8393 29.1016 33.8636V49.1546C29.1016 49.8595 29.663 50.4187 30.3415 50.4187H46.8578C50.9751 50.4187 51.9577 50.3701 56.4026 50.3701C58.0402 50.3701 59.6544 50.1513 61.1984 49.6165C64.5906 48.4739 67.3511 46.4075 69.363 43.3445C71.7024 39.8439 72.568 35.9543 72.0066 31.7487L71.9598 31.6757ZM46.4834 36.2217H44.4014C43.2083 36.2217 42.2257 35.2007 42.2257 33.9609C42.2257 32.7211 43.2083 31.7001 44.4014 31.7001H46.4834V36.246V36.2217ZM56.7769 36.2217H54.6948V31.6757H56.7769C57.97 31.6757 58.9526 32.6968 58.9526 33.9366C58.9526 35.1764 57.97 36.1974 56.7769 36.1974V36.2217Z" fill="#161616"/>
<path d="M51.9724 25.5427C52.6297 24.8055 52.8527 24.6096 54.9864 22.128C56.8899 19.9161 56.9122 17.8722 55.1765 16.1787C55.1765 16.1787 55.1741 16.1763 55.174 16.1714C55.174 16.1714 50.4085 11.5134 49.7773 10.8958C50.1977 9.79823 50.8202 8.76046 51.6445 7.84871C55.179 3.93904 61.0936 3.74799 64.8541 7.4275C65.682 8.23752 66.3366 9.16834 66.8164 10.171C66.6475 10.3579 52.475 26.0344 52.4727 26.037C52.3425 26.1809 52.1258 26.1878 51.9875 26.0524C51.8491 25.917 51.8424 25.6916 51.9726 25.5476L51.9724 25.5427Z" fill="#F78C1E"/>
</svg>
