<svg width="124" height="41" viewBox="0 0 124 41" fill="none" xmlns="http://www.w3.org/2000/svg">
<path d="M76.905 14.1719V27.2403C76.905 27.3571 76.8863 27.4935 76.849 27.6298C76.7184 28.1362 76.3452 28.4088 75.8601 28.4867C75.5802 28.5257 75.2817 28.4867 75.0018 28.4867C74.5354 28.4867 63.9375 28.5646 63.9375 28.5646C63.9375 32.343 63.9375 36.0239 63.9375 39.8023C63.9375 39.8802 63.9375 39.9581 63.9375 40.036C63.9375 40.2113 64.0495 40.3086 64.2174 40.3281C64.292 40.3281 64.3666 40.3281 64.4226 40.3281C68.1356 40.3281 71.8672 40.3281 75.5802 40.3281C76.8863 40.3281 78.1737 40.1528 79.4052 39.7244C82.1106 38.809 84.3123 37.1535 85.9169 34.6996C87.4282 32.4014 88.1746 29.9085 88.1559 27.2403V14.1719H76.905Z" fill="#161616"/>
<path d="M123.823 25.3348C123.512 23.0401 122.597 20.9787 121.176 19.1508C120.066 17.7311 118.703 16.5838 117.126 15.7282C115.16 14.6586 113.038 14.153 110.799 14.1724C108.735 14.1724 107.586 14.1724 106.379 14.1919C106.379 14.1919 106.379 14.1919 106.36 14.1919C106.282 14.1919 106.204 14.1919 106.146 14.1919C102.271 14.1919 105.153 14.1919 101.278 14.1919C99.9155 14.1919 98.5722 14.3669 97.2872 14.7947C94.4642 15.7087 92.1669 17.3617 90.4925 19.8119C88.9545 22.0289 88.1757 24.4597 88.1562 27.0461C88.1562 27.0461 88.1562 27.0655 88.1562 27.085V39.3169C88.1562 39.8808 88.6235 40.3281 89.1881 40.3281H102.933C106.36 40.3281 107.177 40.2892 110.877 40.2892C112.239 40.2892 113.583 40.1142 114.868 39.6864C117.691 38.7724 119.988 37.1194 121.662 34.6692C123.609 31.8688 124.33 28.7574 123.862 25.3931L123.823 25.3348ZM102.622 28.9713H100.889C99.8961 28.9713 99.0784 28.1545 99.0784 27.1628C99.0784 26.171 99.8961 25.3542 100.889 25.3542H102.622V28.9907V28.9713ZM111.188 28.9713H109.455V25.3348H111.188C112.181 25.3348 112.999 26.1515 112.999 27.1433C112.999 28.1351 112.181 28.9518 111.188 28.9518V28.9713Z" fill="#161616"/>
<path d="M107.187 20.4288C107.734 19.8391 107.919 19.6823 109.695 17.6971C111.279 15.9278 111.298 14.2928 109.853 12.938C109.853 12.938 109.851 12.9361 109.851 12.9322C109.851 12.9322 105.885 9.20604 105.36 8.71199C105.71 7.834 106.228 7.00384 106.914 6.27449C109.856 3.14696 114.778 2.99413 117.907 5.93755C118.596 6.58552 119.141 7.33013 119.54 8.13217C119.4 8.28168 107.605 20.8221 107.603 20.8241C107.495 20.9393 107.315 20.9448 107.199 20.8365C107.084 20.7282 107.079 20.5478 107.187 20.4327L107.187 20.4288Z" fill="white"/>
<path d="M12.9675 14.1719V27.2403C12.9675 27.3571 12.9488 27.4935 12.9115 27.6298C12.7809 28.1362 12.4077 28.4088 11.9226 28.4867C11.6427 28.5257 11.3442 28.4867 11.0643 28.4867C10.5979 28.4867 0 28.5646 0 28.5646C0 32.343 0 36.0239 0 39.8023C0 39.8802 0 39.9581 0 40.036C0 40.2113 0.111952 40.3086 0.279877 40.3281C0.35451 40.3281 0.429144 40.3281 0.485118 40.3281C4.19811 40.3281 7.92975 40.3281 11.6427 40.3281C12.9488 40.3281 14.2362 40.1528 15.4677 39.7244C18.1731 38.809 20.3748 37.1535 21.9794 34.6996C23.4907 32.4014 24.2371 29.9085 24.2184 27.2403V14.1719H12.9675Z" fill="#161616"/>
<path d="M59.886 25.3348C59.5745 23.0401 58.6594 20.9787 57.2382 19.1508C56.1285 17.7311 54.7656 16.5838 53.1887 15.7282C51.2223 14.6586 49.1002 14.153 46.8612 14.1724C44.7975 14.1724 43.6488 14.1724 42.4417 14.1919C42.4417 14.1919 42.4418 14.1919 42.4223 14.1919C42.3444 14.1919 42.2665 14.1919 42.2081 14.1919C38.3338 14.1919 41.2152 14.1919 37.3409 14.1919C35.978 14.1919 34.6347 14.3669 33.3497 14.7947C30.5267 15.7087 28.2294 17.3617 26.555 19.8119C25.017 22.0289 24.2382 24.4597 24.2188 27.0461C24.2188 27.0461 24.2188 27.0655 24.2188 27.085V39.3169C24.2188 39.8808 24.686 40.3281 25.2506 40.3281H38.9957C42.4223 40.3281 43.24 40.2892 46.9391 40.2892C48.3019 40.2892 49.6453 40.1142 50.9302 39.6864C53.7532 38.7724 56.0506 37.1194 57.7249 34.6692C59.6718 31.8688 60.3922 28.7574 59.9249 25.3931L59.886 25.3348ZM38.6842 28.9713H36.9515C35.9586 28.9713 35.1409 28.1545 35.1409 27.1628C35.1409 26.171 35.9586 25.3542 36.9515 25.3542H38.6842V28.9907V28.9713ZM47.2506 28.9713H45.5179V25.3348H47.2506C48.2435 25.3348 49.0612 26.1515 49.0612 27.1433C49.0612 28.1351 48.2435 28.9518 47.2506 28.9518V28.9713Z" fill="#161616"/>
<path d="M43.2495 20.4288C43.7965 19.8391 43.982 19.6823 45.7577 17.6971C47.3418 15.9278 47.3604 14.2928 45.916 12.938C45.916 12.938 45.9139 12.9361 45.9138 12.9322C45.9138 12.9322 41.948 9.20604 41.4227 8.71199C41.7725 7.834 42.2905 7.00384 42.9765 6.27449C45.918 3.14696 50.8403 2.99413 53.9698 5.93755C54.6587 6.58552 55.2035 7.33013 55.6028 8.13217C55.4622 8.28168 43.6677 20.8221 43.6658 20.8241C43.5575 20.9393 43.3771 20.9448 43.2619 20.8365C43.1468 20.7282 43.1413 20.5478 43.2496 20.4327L43.2495 20.4288Z" fill="white"/>
</svg>
