<svg width="122" height="40" viewBox="0 0 122 40" fill="none" xmlns="http://www.w3.org/2000/svg">
<path d="M75.5426 13.553V26.3901C75.5426 26.5048 75.5243 26.6388 75.4877 26.7727C75.3594 27.2701 74.9928 27.5379 74.5163 27.6145C74.2414 27.6527 73.9481 27.6145 73.6732 27.6145C73.215 27.6145 62.8047 27.691 62.8047 27.691C62.8047 31.4024 62.8047 35.0183 62.8047 38.7297C62.8047 38.8062 62.8047 38.8828 62.8047 38.9593C62.8047 39.1315 62.9147 39.2271 63.0796 39.2463C63.1529 39.2463 63.2262 39.2463 63.2812 39.2463C66.9285 39.2463 70.5941 39.2463 74.2413 39.2463C75.5243 39.2463 76.7889 39.0741 77.9986 38.6532C80.6562 37.754 82.8188 36.1279 84.3951 33.7173C85.8796 31.4598 86.6128 29.011 86.5944 26.3901V13.553H75.5426Z" fill="white"/>
<path d="M121.63 24.5183C121.324 22.2642 120.425 20.2394 119.029 18.4437C117.939 17.0493 116.6 15.9222 115.051 15.0817C113.119 14.0311 111.035 13.5344 108.835 13.5535C106.808 13.5535 105.68 13.5535 104.494 13.5726C104.494 13.5726 104.494 13.5726 104.475 13.5726C104.399 13.5726 104.322 13.5726 104.265 13.5726C100.459 13.5726 103.289 13.5726 99.4836 13.5726C98.1449 13.5726 96.8253 13.7445 95.5631 14.1648C92.7901 15.0626 90.5334 16.6863 88.8887 19.0932C87.3778 21.2709 86.6129 23.6587 86.5938 26.1993C86.5938 26.1993 86.5938 26.2184 86.5938 26.2375V38.2529C86.5938 38.8069 87.0527 39.2463 87.6073 39.2463H101.109C104.475 39.2463 105.278 39.208 108.912 39.208C110.251 39.208 111.57 39.0361 112.832 38.6159C115.605 37.7181 117.862 36.0944 119.507 33.6874C121.419 30.9367 122.127 27.8803 121.668 24.5756L121.63 24.5183ZM100.803 28.0904H99.1011C98.1258 28.0904 97.3225 27.2881 97.3225 26.3139C97.3225 25.3397 98.1258 24.5374 99.1011 24.5374H100.803V28.1095V28.0904ZM109.218 28.0904H107.516V24.5183H109.218C110.193 24.5183 110.996 25.3206 110.996 26.2948C110.996 27.269 110.193 28.0713 109.218 28.0713V28.0904Z" fill="white"/>
<path d="M105.288 19.699C105.825 19.1198 106.008 18.9658 107.752 17.0158C109.308 15.2777 109.326 13.6717 107.907 12.3409C107.907 12.3409 107.905 12.339 107.905 12.3352C107.905 12.3352 104.01 8.67497 103.494 8.18966C103.837 7.32722 104.346 6.51175 105.02 5.79531C107.909 2.72314 112.745 2.57301 115.819 5.46433C116.495 6.10083 117.031 6.83226 117.423 7.62011C117.285 7.76697 105.699 20.0854 105.697 20.0874C105.591 20.2005 105.414 20.206 105.3 20.0996C105.187 19.9932 105.182 19.816 105.288 19.7029L105.288 19.699Z" fill="#F78C1E"/>
<path d="M12.738 13.553V26.3901C12.738 26.5048 12.7196 26.6388 12.683 26.7727C12.5547 27.2701 12.1881 27.5379 11.7116 27.6145C11.4367 27.6527 11.1434 27.6145 10.8685 27.6145C10.4103 27.6145 0 27.691 0 27.691C0 31.4024 0 35.0183 0 38.7297C0 38.8062 0 38.8828 0 38.9593C0 39.1315 0.109971 39.2271 0.274923 39.2463C0.348235 39.2463 0.421548 39.2463 0.476532 39.2463C4.1238 39.2463 7.78939 39.2463 11.4367 39.2463C12.7196 39.2463 13.9843 39.0741 15.1939 38.6532C17.8515 37.754 20.0142 36.1279 21.5904 33.7173C23.0749 31.4598 23.8081 29.011 23.7897 26.3901V13.553H12.738Z" fill="white"/>
<path d="M58.825 24.5183C58.519 22.2642 57.6201 20.2394 56.224 18.4437C55.134 17.0493 53.7953 15.9222 52.2462 15.0817C50.3146 14.0311 48.2301 13.5344 46.0308 13.5535C44.0036 13.5535 42.8752 13.5535 41.6895 13.5726C41.6895 13.5726 41.6895 13.5726 41.6704 13.5726C41.5939 13.5726 41.5174 13.5726 41.46 13.5726C37.6543 13.5726 40.4847 13.5726 36.6789 13.5726C35.3402 13.5726 34.0206 13.7445 32.7584 14.1648C29.9854 15.0626 27.7287 16.6863 26.084 19.0932C24.5732 21.2709 23.8082 23.6587 23.7891 26.1993C23.7891 26.1993 23.7891 26.2184 23.7891 26.2375V38.2529C23.7891 38.8069 24.248 39.2463 24.8027 39.2463H38.3045C41.6704 39.2463 42.4736 39.208 46.1072 39.208C47.446 39.208 48.7655 39.0361 50.0278 38.6159C52.8008 37.7181 55.0575 36.0944 56.7022 33.6874C58.6146 30.9367 59.3222 27.8803 58.8632 24.5756L58.825 24.5183ZM37.9985 28.0904H36.2964C35.3211 28.0904 34.5179 27.2881 34.5179 26.3139C34.5179 25.3397 35.3211 24.5374 36.2964 24.5374H37.9985V28.1095V28.0904ZM46.4132 28.0904H44.7112V24.5183H46.4132C47.3886 24.5183 48.1918 25.3206 48.1918 26.2948C48.1918 27.269 47.3886 28.0713 46.4132 28.0713V28.0904Z" fill="white"/>
<path d="M42.4835 19.699C43.0208 19.1198 43.203 18.9658 44.9473 17.0158C46.5034 15.2777 46.5216 13.6717 45.1028 12.3409C45.1028 12.3409 45.1008 12.339 45.1007 12.3352C45.1007 12.3352 41.205 8.67497 40.689 8.18966C41.0326 7.32722 41.5415 6.51175 42.2154 5.79531C45.1048 2.72314 49.9399 2.57301 53.0141 5.46433C53.6908 6.10083 54.2259 6.83226 54.6182 7.62011C54.4801 7.76697 42.8943 20.0854 42.8924 20.0874C42.786 20.2005 42.6089 20.206 42.4957 20.0996C42.3826 19.9932 42.3772 19.816 42.4836 19.7029L42.4835 19.699Z" fill="#F78C1E"/>
</svg>
