<svg width="276" height="311" viewBox="0 0 276 311" fill="none" xmlns="http://www.w3.org/2000/svg">
<g style="mix-blend-mode:luminosity">
<path d="M268.366 21.2783C259.393 29.4827 257.022 32.2301 226.812 58.9086C199.893 82.688 174.303 83.6922 152.391 63.3234C152.35 63.3234 152.309 63.3044 152.289 63.3044C152.289 63.3044 92.0943 7.42752 84.0819 0C70.51 5.49485 57.7761 13.3392 46.657 23.6468C-0.885652 67.7193 -0.885652 139.19 46.657 183.282C57.1425 193.002 69.0588 200.562 81.7723 206C84.0411 203.897 274.661 27.19 274.682 27.1711C276.439 25.5416 276.439 22.9268 274.682 21.2973C272.965 19.6488 270.124 19.6488 268.366 21.2783Z" fill="url(#paint0_linear_57_66)"/>
<path d="M18.6342 286.858C27.6072 279.092 29.9782 276.491 60.188 251.237C87.107 228.727 112.697 227.777 134.609 247.058C134.65 247.058 134.691 247.076 134.711 247.076C134.711 247.076 194.906 299.969 202.918 307C216.49 301.799 229.224 294.373 240.343 284.616C287.886 242.897 287.886 175.242 240.343 133.505C229.858 124.304 217.941 117.148 205.228 112C202.959 113.991 12.3388 281.262 12.3184 281.28C10.5606 282.822 10.5606 285.297 12.3184 286.84C14.0353 288.4 16.8764 288.4 18.6342 286.858Z" fill="url(#paint1_linear_57_66)"/>
</g>
<defs>
<linearGradient id="paint0_linear_57_66" x1="-20.5" y1="117" x2="269" y2="39" gradientUnits="userSpaceOnUse">
<stop stop-color="#484848"/>
<stop offset="0.286915" stop-color="#454545" stop-opacity="0.97"/>
<stop offset="0.444444" stop-color="#444444" stop-opacity="0.81"/>
<stop offset="0.653366" stop-color="#484848" stop-opacity="0.42"/>
<stop offset="1" stop-color="#494949" stop-opacity="0.71"/>
</linearGradient>
<linearGradient id="paint1_linear_57_66" x1="307.5" y1="196.248" x2="20.2552" y2="278.006" gradientUnits="userSpaceOnUse">
<stop stop-color="#484848"/>
<stop offset="0.286915" stop-color="#454545" stop-opacity="0.97"/>
<stop offset="0.444444" stop-color="#444444" stop-opacity="0.81"/>
<stop offset="0.653366" stop-color="#484848" stop-opacity="0.42"/>
<stop offset="1" stop-color="#494949" stop-opacity="0.71"/>
</linearGradient>
</defs>
</svg>
