<svg width="64" height="52" viewBox="0 0 64 52" fill="none" xmlns="http://www.w3.org/2000/svg">
<path d="M49.2515 24.385C41.4118 24.385 42.7285 24.3545 37.5041 24.385C31.9992 24.4215 27.0917 24.0558 22.2818 28.8657C12.7229 38.4124 10.8452 40.2961 0 51.1414C2.12149 52.2631 5.49881 52.3728 7.96778 49.5258C20.9223 56.3963 34.5413 45.8315 34.651 33.255C34.6876 29.0364 36.8091 25.9334 41.9299 25.7566C43.4662 25.7017 49.2698 25.592 49.2698 25.592C49.5929 25.5798 49.855 25.3177 49.855 24.9885C49.855 24.6593 49.5807 24.385 49.2515 24.385Z" fill="#161616"/>
<path d="M53.0053 21.7514C51.2374 21.7392 50.707 21.8002 44.8546 21.6538C39.6362 21.5258 36.9905 19.0934 36.9966 14.7407C36.9966 14.7407 36.9966 14.7346 36.9905 14.7285C36.9905 14.7285 36.9966 2.76769 36.9966 1.18267C35.0641 0.420641 32.9548 0 30.754 0C21.317 0 13.6602 7.65078 13.6602 17.0939C13.6602 19.1727 14.032 21.1661 14.7148 23.0133C15.1659 23.0133 53.0053 23.0133 53.0114 23.0133C53.3589 23.0133 53.6393 22.7329 53.6393 22.3854C53.6393 22.0379 53.3589 21.7575 53.0114 21.7575L53.0053 21.7514Z" fill="#161616"/>
<path d="M45.1845 29.6155V34.779C45.1845 34.8278 45.1723 34.8766 45.1601 34.9315C45.1053 35.1326 44.9529 35.2424 44.7517 35.2667C44.6359 35.2789 44.5139 35.2667 44.392 35.2667C44.203 35.2667 39.832 35.2972 39.832 35.2972C39.832 36.7908 39.832 38.2478 39.832 39.7353C39.832 39.7658 39.832 39.7963 39.832 39.8267C39.832 39.8938 39.8808 39.9304 39.9418 39.9426C39.9722 39.9426 40.0027 39.9426 40.0271 39.9426C41.5634 39.9426 43.0935 39.9426 44.6298 39.9426C45.1662 39.9426 45.6966 39.8694 46.2087 39.7048C47.3243 39.3451 48.2327 38.6867 48.8971 37.7174C49.5251 36.8152 49.8299 35.8276 49.8177 34.773V29.6094H45.1723L45.1845 29.6155Z" fill="#161616"/>
<path d="M63.9492 34.0414C63.8212 33.1331 63.4676 32.3162 62.9006 31.5907C62.4617 31.0238 61.9253 30.5726 61.2973 30.2313C60.517 29.8045 59.6818 29.6094 58.7918 29.6094C57.981 29.6094 57.5238 29.6094 57.0422 29.6155C57.0422 29.6155 57.0361 29.6155 57.03 29.6155C56.9995 29.6155 56.969 29.6155 56.9385 29.6155C55.4023 29.6155 56.5423 29.6155 55.0121 29.6155C54.4756 29.6155 53.9453 29.6887 53.4332 29.8533C52.3176 30.213 51.4092 30.8714 50.7447 31.8407C50.1351 32.7246 49.8303 33.6817 49.8242 34.7059C49.8242 34.7059 49.8242 34.712 49.8242 34.7181V39.5585C49.8242 39.778 50.0071 39.9548 50.2327 39.9548H55.6644C57.0178 39.9548 57.347 39.9426 58.8101 39.9426C59.3465 39.9426 59.8769 39.8694 60.389 39.7048C61.5046 39.3451 62.4129 38.6867 63.0774 37.7174C63.8456 36.6079 64.1321 35.3765 63.9431 34.0414H63.9492ZM55.5669 35.4801H54.8841C54.4878 35.4801 54.1647 35.157 54.1647 34.7608C54.1647 34.3645 54.4878 34.0414 54.8841 34.0414H55.5669V35.4801ZM58.9503 35.4801H58.2675V34.0414H58.9503C59.3465 34.0414 59.6696 34.3645 59.6696 34.7608C59.6696 35.157 59.3465 35.4801 58.9503 35.4801Z" fill="#161616"/>
<path d="M45.1845 41.5763V46.7399C45.1845 46.7886 45.1723 46.8374 45.1601 46.8923C45.1053 47.0934 44.9529 47.2032 44.7517 47.2276C44.6359 47.2398 44.5139 47.2276 44.392 47.2276C44.203 47.2276 39.832 47.258 39.832 47.258C39.832 48.7516 39.832 50.2086 39.832 51.6961C39.832 51.7266 39.832 51.7571 39.832 51.7875C39.832 51.8546 39.8808 51.8912 39.9418 51.9034C39.9722 51.9034 40.0027 51.9034 40.0271 51.9034C41.5634 51.9034 43.0935 51.9034 44.6298 51.9034C45.1662 51.9034 45.6966 51.8302 46.2087 51.6656C47.3243 51.3059 48.2327 50.6475 48.8971 49.6782C49.5251 48.776 49.8299 47.7884 49.8177 46.7338V41.5703H45.1723L45.1845 41.5763Z" fill="#161616"/>
<path d="M63.9492 46.0022C63.8212 45.0939 63.4676 44.277 62.9006 43.5515C62.4617 42.9846 61.9253 42.5335 61.2973 42.1921C60.517 41.7653 59.6818 41.5703 58.7918 41.5703C57.981 41.5703 57.5238 41.5702 57.0422 41.5763C57.0422 41.5763 57.0361 41.5763 57.03 41.5763C56.9995 41.5763 56.969 41.5763 56.9385 41.5763C55.4023 41.5763 56.5423 41.5763 55.0121 41.5763C54.4756 41.5763 53.9453 41.6495 53.4332 41.8141C52.3176 42.1738 51.4092 42.8322 50.7447 43.8015C50.1351 44.6854 49.8303 45.6425 49.8242 46.6667C49.8242 46.6667 49.8242 46.6728 49.8242 46.6789V51.5193C49.8242 51.7388 50.0071 51.9156 50.2327 51.9156H55.6644C57.0178 51.9156 57.347 51.9034 58.8101 51.9034C59.3465 51.9034 59.8769 51.8302 60.389 51.6656C61.5046 51.3059 62.4129 50.6475 63.0774 49.6782C63.8456 48.5687 64.1321 47.3373 63.9431 46.0022H63.9492ZM55.5669 47.4409H54.8841C54.4878 47.4409 54.1647 47.1178 54.1647 46.7216C54.1647 46.3253 54.4878 46.0022 54.8841 46.0022H55.5669V47.4409ZM58.9503 47.4409H58.2675V46.0022H58.9503C59.3465 46.0022 59.6696 46.3253 59.6696 46.7216C59.6696 47.1178 59.3465 47.4409 58.9503 47.4409Z" fill="#161616"/>
</svg>
